<?xml version="1.0" encoding="UTF-8" standalone="no"?>
<!DOCTYPE svg PUBLIC "-//W3C//DTD SVG 1.1//EN" "http://www.w3.org/Graphics/SVG/1.1/DTD/svg11.dtd">
<svg xmlns="http://www.w3.org/2000/svg" version="1.1" viewBox="0.00 0.00 620.00 506.00">
<g stroke-width="2.00" fill="none" stroke-linecap="butt">
<path stroke="#a0a19f" vector-effect="non-scaling-stroke" d="
  M 452.37 449.74
  Q 451.62 452.16 451.21 452.71
  Q 444.78 461.39 443.91 463.33
  A 6.28 6.27 -11.3 0 1 442.68 465.17
  L 440.82 467.05
  A 3.03 3.02 -41.8 0 0 440.59 471.04
  L 440.92 471.46
  A 2.04 2.03 -41.2 0 0 443.90 471.65
  L 448.37 467.44
  A 4.54 4.46 84.3 0 0 449.11 466.52
  Q 451.36 462.86 456.20 457.94
  A 0.71 0.71 0.0 0 1 457.39 458.62
  Q 456.91 460.43 455.81 462.15
  C 453.70 465.46 452.76 468.53 450.22 474.47
  Q 449.56 476.02 449.89 477.91
  A 2.48 2.38 77.9 0 0 452.84 479.91
  Q 453.67 479.70 454.53 478.51
  Q 459.92 471.07 463.20 462.47"
/>
<path stroke="#7e7e7e" vector-effect="non-scaling-stroke" d="
  M 463.20 462.47
  Q 464.64 460.02 466.63 458.31
  C 468.02 457.12 469.18 457.41 470.73 457.48
  Q 471.24 457.51 473.41 459.05
  Q 475.84 460.77 478.03 460.18
  Q 482.77 458.90 486.11 459.80
  A 1.44 1.43 80.5 0 1 486.93 460.39
  L 487.57 461.38
  A 1.35 1.35 0.0 0 0 488.64 461.99
  C 492.70 462.22 493.93 461.09 497.54 458.40
  A 1.65 1.62 -61.0 0 1 498.66 458.07
  L 500.23 458.20
  A 4.69 4.64 39.4 0 0 501.86 458.05
  L 509.79 455.87
  A 6.19 6.14 -68.4 0 0 511.32 455.20
  L 512.91 454.23
  A 1.37 1.36 37.9 0 1 513.99 454.10
  C 516.69 454.94 519.50 455.74 521.13 452.19
  A 1.60 1.60 0.0 0 1 522.90 451.29
  Q 526.95 452.10 529.46 453.04
  Q 531.15 453.68 538.19 453.66
  A 4.26 3.94 -50.8 0 0 539.32 453.50
  C 546.43 451.47 551.48 450.11 555.12 443.91
  Q 557.25 440.29 556.94 437.72
  C 556.66 435.35 555.77 430.93 554.55 429.00
  C 552.31 425.46 549.60 422.97 546.21 419.49
  A 3.14 2.93 37.0 0 1 545.60 416.00
  C 546.68 413.90 545.82 411.90 546.61 409.70
  Q 547.24 407.97 546.60 405.66
  C 546.00 403.53 546.69 401.87 546.90 399.82
  A 0.44 0.31 -61.5 0 0 546.88 399.64
  L 537.60 376.09
  A 3.84 3.74 -77.9 0 0 536.82 374.85
  L 525.71 363.02"
/>
<path stroke="#a0a19f" vector-effect="non-scaling-stroke" d="
  M 525.71 363.02
  Q 527.41 360.16 529.53 357.32
  C 532.52 353.33 535.22 348.63 538.34 345.55
  Q 538.93 344.97 541.43 343.43
  A 2.30 2.25 -2.2 0 0 542.20 342.62
  Q 543.51 340.23 543.76 337.91
  A 1.70 1.69 16.5 0 0 542.83 336.21
  L 538.28 333.95
  A 1.66 1.66 0.0 0 0 536.26 334.37
  Q 534.10 336.99 532.75 340.67
  A 8.82 8.65 -17.1 0 1 531.58 342.83
  L 519.00 359.68"
/>
<path stroke="#7e7e7e" vector-effect="non-scaling-stroke" d="
  M 519.00 359.68
  Q 516.76 360.31 516.54 357.96"
/>
<path stroke="#a0a19f" vector-effect="non-scaling-stroke" d="
  M 516.54 357.96
  Q 519.32 351.98 522.25 346.06
  C 523.75 343.04 524.57 340.23 526.74 338.04
  Q 529.20 335.56 529.61 333.62
  C 530.37 329.96 525.57 324.63 522.38 328.89
  Q 520.55 331.34 518.28 338.07
  A 2.17 1.23 -81.1 0 1 518.17 338.34
  L 510.63 353.50
  A 2.03 2.02 10.9 0 1 508.97 354.62
  L 505.98 354.86"
/>
<path stroke="#7e7e7e" vector-effect="non-scaling-stroke" d="
  M 505.98 354.86
  Q 503.81 355.66 501.89 355.30
  A 1.56 1.55 76.2 0 1 500.96 354.73
  Q 499.09 352.29 495.34 352.40
  A 2.39 2.35 -53.6 0 0 494.77 352.49
  Q 489.04 354.15 486.00 354.15
  Q 479.36 354.15 476.91 355.16
  Q 467.52 358.99 462.51 361.27
  Q 455.58 364.43 448.92 372.18
  Q 448.81 372.31 445.14 377.07
  C 442.25 380.81 439.97 385.70 438.57 388.84
  A 14.58 13.79 -27.0 0 0 437.82 390.95
  Q 437.75 391.25 435.85 400.75
  Q 434.90 405.49 435.64 409.76
  A 0.52 0.51 3.3 0 1 434.98 410.34
  C 432.46 409.58 429.49 409.23 426.34 408.03
  C 417.99 404.84 410.17 402.01 403.13 397.89
  Q 374.76 381.30 354.32 360.43
  C 346.57 352.50 337.11 341.94 328.14 333.15
  Q 316.02 321.29 308.98 313.78
  C 295.68 299.59 289.69 293.68 277.59 281.34
  Q 270.23 273.84 264.86 267.84
  Q 262.34 265.03 253.31 256.21
  C 246.35 249.41 239.04 240.99 232.03 234.39
  A 0.89 0.89 0.0 0 1 231.87 233.29
  C 233.73 230.16 236.73 227.88 238.70 225.22
  Q 241.54 221.37 251.75 210.26
  Q 254.24 207.55 263.54 196.46
  C 266.92 192.44 270.47 189.25 273.17 185.40
  Q 275.38 182.26 280.39 177.12
  Q 287.01 170.34 291.63 164.23
  C 295.65 158.93 300.26 154.40 304.97 149.05
  Q 305.98 147.89 310.42 142.34
  Q 319.53 130.94 333.22 125.62
  A 12.30 11.77 -58.2 0 1 335.97 124.91
  Q 342.19 124.08 349.30 122.80
  Q 350.82 122.53 352.17 121.56
  A 1.38 1.38 0.0 0 0 352.56 119.74
  Q 351.66 118.22 350.60 117.10
  Q 349.82 116.28 347.69 116.54
  Q 340.81 117.39 336.99 117.44
  Q 306.88 117.83 289.25 118.04
  Q 285.78 118.08 279.66 117.45
  A 3.71 3.70 -75.5 0 0 275.89 119.68
  L 275.83 119.82
  A 2.36 2.36 0.0 0 0 277.62 123.08
  C 282.67 123.92 288.36 124.62 290.03 129.82
  C 291.65 134.88 285.80 140.65 282.38 144.26
  A 8.54 8.36 -7.5 0 0 281.40 145.51
  C 278.86 149.47 277.00 152.53 274.08 155.78
  Q 271.00 159.20 270.03 160.64
  C 267.20 164.86 263.47 168.59 260.67 172.69
  C 256.46 178.86 251.60 184.25 247.89 189.62
  Q 246.86 191.12 244.43 193.73
  C 241.49 196.89 239.00 201.21 236.33 204.49
  Q 230.95 211.12 226.49 217.14
  A 0.37 0.37 0.0 0 1 225.84 217.01
  Q 225.53 215.87 225.51 214.50
  Q 225.19 191.77 224.78 140.22
  Q 224.76 138.51 224.61 135.77
  Q 224.26 129.38 226.76 122.88
  A 6.88 6.74 76.5 0 1 227.97 120.86
  Q 230.87 117.51 230.95 117.43
  C 234.59 113.15 238.72 111.58 244.50 110.16
  C 247.15 109.50 249.82 112.04 251.92 108.41
  A 1.47 1.41 -35.5 0 0 252.10 107.46
  C 251.64 104.37 250.42 103.34 247.08 103.95
  Q 243.98 104.52 222.75 104.92
  Q 205.91 105.24 194.30 105.28
  C 191.58 105.28 189.20 105.85 187.13 105.34
  C 183.88 104.55 179.73 105.18 176.46 104.48
  A 2.73 2.73 0.0 0 0 173.16 106.93
  L 173.08 107.86
  A 3.00 3.00 0.0 0 0 176.38 111.08
  Q 186.09 110.09 193.13 116.50
  Q 198.00 120.95 199.00 123.34
  Q 201.03 128.19 201.11 134.93
  Q 202.18 227.84 202.72 324.99
  Q 202.76 332.20 197.39 338.54
  C 196.07 340.10 193.59 343.04 191.42 344.13
  Q 186.54 346.59 178.36 346.66
  A 2.79 2.79 0.0 0 0 175.63 349.92
  L 175.67 350.12
  A 3.59 3.59 0.0 0 0 179.52 353.09
  Q 192.95 351.93 208.01 351.96
  Q 213.06 351.97 237.01 351.43
  C 240.50 351.35 243.78 351.64 247.85 351.18
  A 1.01 0.95 46.7 0 1 248.19 351.20
  L 251.36 351.94
  A 1.15 1.14 -68.8 0 0 252.61 351.38
  Q 253.64 349.56 253.82 348.44
  A 1.81 1.81 0.0 0 0 251.88 346.35
  C 244.71 346.95 236.98 344.58 232.13 338.73
  C 227.63 333.31 226.30 327.02 226.50 319.59
  Q 226.53 318.80 225.93 266.42
  A 1.06 1.06 0.0 0 1 227.41 265.44
  C 228.47 265.91 230.23 268.40 232.17 270.73
  Q 234.35 273.35 237.83 276.63
  Q 248.09 286.30 256.62 295.92
  C 260.06 299.80 264.43 303.57 267.34 307.31
  C 269.48 310.07 272.28 312.21 274.58 315.01
  C 278.67 319.99 283.59 323.48 287.72 328.75
  Q 290.56 332.37 296.77 337.96
  Q 300.81 341.60 307.49 349.29
  C 314.43 357.28 321.67 364.25 328.96 371.84
  Q 332.90 375.94 338.81 381.12
  Q 344.37 385.99 350.32 390.95
  Q 351.53 391.96 352.39 392.70
  Q 353.41 393.58 354.56 394.30
  Q 367.68 402.50 370.54 404.19
  Q 383.93 412.06 398.07 416.91
  C 402.10 418.30 405.17 418.62 408.73 419.76
  Q 410.97 420.47 416.85 421.35
  Q 427.72 422.98 436.48 423.21
  A 2.77 2.77 0.0 0 1 439.15 425.51
  C 439.78 429.13 441.49 430.21 443.66 432.63
  A 1.79 1.76 -67.1 0 1 444.11 433.76
  Q 444.22 437.38 443.20 439.16
  A 3.47 3.43 1.7 0 1 441.75 440.51
  C 439.31 441.71 435.94 442.97 436.84 446.50
  C 437.40 448.72 439.25 449.11 441.31 449.43
  Q 442.14 449.56 445.19 448.06
  Q 448.14 446.60 450.79 446.50
  Q 452.98 446.41 452.37 449.74"
/>
<path stroke="#222321" vector-effect="non-scaling-stroke" d="
  M 505.98 354.86
  Q 508.16 355.69 510.25 355.53
  A 0.97 0.96 -22.7 0 1 511.06 355.86
  C 512.61 357.64 514.63 357.11 516.54 357.96"
/>
<path stroke="#222321" vector-effect="non-scaling-stroke" d="
  M 519.00 359.68
  Q 519.65 360.00 521.69 361.58
  Q 523.46 362.95 525.71 363.02"
/>
<path stroke="#222321" vector-effect="non-scaling-stroke" d="
  M 463.20 462.47
  L 462.30 462.98
  A 0.47 0.47 0.0 0 1 461.64 462.37
  L 464.11 457.41
  A 0.83 0.83 0.0 0 0 464.16 456.79
  Q 463.67 455.22 462.06 454.15
  Q 456.96 450.76 455.42 449.70
  Q 454.88 449.32 454.51 449.37
  Q 453.99 449.43 453.65 449.83
  Q 453.38 450.15 453.01 450.12
  Q 452.63 450.09 452.37 449.74"
/>
<path stroke="#7e7e7e" vector-effect="non-scaling-stroke" d="
  M 256.22 170.68
  A 2.48 2.48 0.0 0 0 258.66 168.14
  Q 258.25 153.56 257.81 134.31
  Q 257.77 132.77 257.96 131.21
  C 258.21 129.11 257.10 124.69 254.25 125.10
  C 246.00 126.30 240.14 125.52 231.83 124.14
  A 2.01 2.00 12.0 0 0 229.56 125.61
  C 228.94 127.94 227.75 134.47 229.03 136.39
  A 4.28 4.19 5.1 0 0 229.74 137.22
  C 231.36 138.65 234.38 139.58 236.67 141.07
  Q 241.76 144.37 243.19 145.82
  Q 248.64 151.40 251.93 159.80
  A 7.97 7.96 30.9 0 1 252.45 161.87
  L 253.20 168.26
  A 2.74 2.74 0.0 0 0 255.94 170.68
  L 256.22 170.68"
/>
<path stroke="#7e7e7e" vector-effect="non-scaling-stroke" d="
  M 195.38 125.83
  Q 191.68 125.48 190.26 126.02
  C 180.03 129.91 170.77 135.88 164.11 144.53
  Q 155.76 155.36 152.75 166.47
  Q 150.08 176.32 150.68 188.84
  Q 151.26 200.72 156.74 210.28
  Q 162.36 220.09 169.78 225.47
  C 174.92 229.20 177.94 232.87 183.25 236.11
  C 186.65 238.18 191.23 242.36 195.35 245.12
  A 1.54 1.51 -27.0 0 0 196.17 245.38
  Q 198.28 245.43 198.27 243.45
  Q 198.22 229.62 197.88 217.89
  Q 197.81 215.55 196.45 214.35
  Q 191.05 209.57 186.95 206.32
  C 180.02 200.83 174.58 194.06 172.54 185.98
  C 169.04 172.09 172.22 157.79 182.30 147.39
  C 186.71 142.84 189.67 140.39 195.12 138.11
  C 198.51 136.69 196.85 128.63 196.09 126.39
  A 0.83 0.82 -6.5 0 0 195.38 125.83"
/>
<path stroke="#7e7e7e" vector-effect="non-scaling-stroke" d="
  M 263.85 309.96
  Q 263.43 310.90 263.74 312.76
  C 264.40 316.80 266.54 322.89 266.73 328.13
  Q 266.99 335.37 265.39 343.95
  Q 265.20 344.97 263.00 352.45
  Q 261.62 357.13 259.69 360.57
  Q 247.28 382.72 222.65 389.39
  C 217.67 390.74 212.44 392.13 208.55 392.32
  Q 201.66 392.66 194.20 392.45
  C 189.03 392.30 184.29 390.57 179.29 389.79
  A 9.47 9.26 61.2 0 1 176.77 389.03
  C 166.25 384.22 157.64 379.02 149.63 370.15
  Q 141.41 361.04 138.36 349.45
  C 135.53 338.68 135.91 327.09 137.58 316.04
  Q 138.35 310.94 141.29 303.05
  Q 145.51 291.76 151.46 284.93
  C 152.92 283.27 153.16 280.94 152.12 279.23
  A 1.34 1.32 71.8 0 0 150.87 278.59
  Q 147.73 278.86 146.36 280.38
  Q 145.10 281.78 138.86 289.28
  A 11.97 11.61 80.0 0 0 137.58 291.17
  C 135.13 295.65 131.07 302.57 129.45 308.27
  Q 128.47 311.73 127.01 316.31
  C 124.38 324.57 124.34 331.69 124.84 341.22
  Q 125.27 349.25 128.41 357.55
  Q 132.30 367.83 135.48 373.28
  Q 143.94 387.73 160.24 396.81
  Q 165.25 399.60 169.69 401.54
  A 8.49 8.22 62.6 0 0 170.94 401.96
  C 174.59 402.89 177.33 404.38 180.90 404.87
  Q 183.84 405.27 186.55 406.19
  A 10.01 9.91 -33.3 0 0 189.08 406.70
  C 192.84 406.95 196.79 407.67 201.03 407.65
  Q 214.50 407.60 219.98 407.14
  Q 238.17 405.58 254.73 396.45
  C 257.20 395.09 260.01 392.50 262.75 390.65
  C 271.69 384.60 279.10 374.71 284.64 364.84
  Q 286.63 361.31 287.80 357.74
  C 289.69 351.99 294.18 340.08 290.45 336.04
  Q 284.04 329.11 281.90 326.56
  C 280.11 324.44 277.91 323.13 276.51 321.05
  Q 275.35 319.32 272.43 316.99
  Q 268.74 314.05 265.55 309.77
  A 0.99 0.99 0.0 0 0 263.85 309.96"
/>
<path stroke="#7e7e7e" vector-effect="non-scaling-stroke" d="
  M 471.60 388.52
  L 468.44 389.77"
/>
<path stroke="#222321" vector-effect="non-scaling-stroke" d="
  M 468.44 389.77
  Q 468.54 386.48 465.27 386.20
  Q 459.66 385.70 457.01 385.95
  Q 456.96 385.96 456.91 385.97
  L 449.00 387.84
  A 3.42 3.30 -64.4 0 0 448.14 388.16
  L 447.84 388.35
  A 0.37 0.37 0.0 0 0 448.00 389.04
  L 466.75 390.57
  A 0.25 0.25 0.0 0 1 466.98 390.77
  Q 467.01 390.90 467.04 391.01"
/>
<path stroke="#7e7e7e" vector-effect="non-scaling-stroke" d="
  M 467.04 391.01
  L 463.06 394.08"
/>
<path stroke="#222321" vector-effect="non-scaling-stroke" d="
  M 463.06 394.08
  Q 461.19 394.14 461.11 392.57
  A 0.55 0.55 0.0 0 0 460.46 392.06
  L 455.78 392.89
  A 1.17 0.80 29.0 0 1 455.57 392.91
  Q 451.68 392.63 449.32 393.92
  A 0.69 0.69 0.0 0 0 449.60 395.21
  L 457.62 395.87
  A 0.49 0.49 0.0 0 1 457.92 396.71
  Q 456.26 398.26 456.14 399.84
  A 1.45 1.45 0.0 0 1 453.97 400.99
  L 445.86 396.31
  A 0.61 0.60 87.0 0 0 445.07 397.19
  Q 447.25 400.22 450.37 402.17
  A 6.90 6.86 -6.5 0 1 451.41 402.99
  Q 455.36 406.82 461.30 405.72
  A 0.34 0.34 0.0 0 0 461.31 405.06
  Q 458.01 404.34 456.50 402.06
  A 0.56 0.56 0.0 0 1 456.76 401.23
  Q 458.92 400.40 460.51 399.00"
/>
<path stroke="#7e7e7e" vector-effect="non-scaling-stroke" d="
  M 460.51 399.00
  L 475.14 389.50"
/>
<path stroke="#222321" vector-effect="non-scaling-stroke" d="
  M 475.14 389.50
  L 481.30 387.27
  A 1.13 1.13 0.0 0 0 481.75 386.98
  Q 482.34 386.39 482.65 385.23
  A 1.59 1.56 -13.9 0 1 483.11 384.48
  Q 483.95 383.69 485.37 383.38"
/>
<path stroke="#7e7e7e" vector-effect="non-scaling-stroke" d="
  M 485.37 383.38
  L 497.39 396.35"
/>
<path stroke="#222321" vector-effect="non-scaling-stroke" d="
  M 497.39 396.35
  Q 498.33 398.59 499.95 400.73
  C 502.82 404.53 504.74 407.97 507.62 411.53
  A 0.44 0.44 0.0 0 0 508.41 411.26
  Q 508.42 409.90 507.67 408.07
  Q 504.16 399.50 498.80 392.48
  A 0.95 0.95 0.0 0 1 498.81 391.31
  L 498.83 391.29
  A 0.71 0.71 0.0 0 1 499.88 391.23
  Q 502.24 393.56 504.49 393.79
  A 0.64 0.63 84.6 0 1 505.04 394.25
  L 505.68 396.58
  A 1.01 1.01 0.0 0 0 507.55 396.79
  Q 508.25 395.47 508.87 393.53
  Q 510.28 389.04 510.70 382.68
  A 2.01 1.99 66.4 0 1 511.13 381.56
  Q 512.47 379.86 512.75 377.84
  A 0.48 0.47 -45.5 0 1 513.69 377.83
  Q 514.59 383.94 512.53 388.27
  A 3.73 3.53 -29.4 0 0 512.21 389.31
  Q 511.82 391.95 510.40 393.99
  Q 508.78 396.29 508.36 397.61
  A 2.62 2.62 0.0 0 0 509.54 400.69
  L 509.82 400.85
  A 1.71 1.71 0.0 0 0 512.23 400.10
  L 516.45 391.19
  A 2.35 2.04 67.5 0 0 516.59 390.77
  L 517.71 385.75
  A 1.14 1.11 -25.9 0 1 517.80 385.50
  C 520.81 379.31 520.89 375.83 520.38 368.40
  Q 520.35 368.02 520.09 367.91
  A 0.70 0.65 15.7 0 0 519.14 368.40
  Q 518.78 370.88 517.11 372.62
  A 1.28 1.23 -19.5 0 0 516.77 373.30
  Q 516.63 374.21 516.43 374.39
  A 0.36 0.35 -17.4 0 1 515.83 374.08
  L 516.32 371.13
  A 1.17 1.13 -53.3 0 0 516.24 370.50
  L 513.67 364.88
  A 0.30 0.30 0.0 0 0 513.14 364.86
  L 512.24 366.42
  A 0.81 0.81 0.0 0 1 510.77 366.25
  Q 509.73 362.80 507.75 360.57
  A 1.55 1.55 0.0 0 0 505.07 361.30
  L 504.44 364.50
  A 1.06 1.06 0.0 0 1 503.02 365.29
  Q 502.44 365.07 502.24 364.74
  Q 500.09 361.20 498.02 358.26
  Q 497.47 357.47 496.74 357.30
  A 1.36 1.13 -80.6 0 0 495.33 358.52
  Q 495.12 360.25 495.10 364.38
  A 0.07 0.07 0.0 0 1 495.04 364.45
  L 494.50 364.60
  A 0.38 0.37 -2.1 0 1 494.03 364.17
  Q 494.51 361.86 492.87 360.97
  A 1.53 1.53 0.0 0 1 492.15 360.08
  Q 491.22 357.02 487.77 357.63
  Q 483.79 358.33 479.03 358.60
  A 3.70 3.61 32.5 0 0 477.93 358.83
  L 470.93 361.43
  A 1.23 1.22 39.3 0 0 471.17 363.79
  Q 472.50 364.00 472.85 364.11
  Q 474.25 364.53 474.23 365.48
  A 1.49 1.49 0.0 0 1 471.70 366.52
  Q 469.30 364.19 465.89 364.99
  A 0.89 0.88 -17.1 0 0 465.26 366.17
  L 466.21 368.56
  A 0.57 0.57 0.0 0 1 465.56 369.33
  L 462.19 368.68
  A 1.31 1.31 0.0 0 0 461.01 370.89
  L 462.11 371.99
  A 0.63 0.63 0.0 0 1 461.61 373.07
  L 457.22 372.71
  A 0.54 0.54 0.0 0 0 456.79 373.63
  L 458.06 374.90
  A 1.10 1.10 0.0 0 1 457.20 376.77
  L 453.91 376.50
  A 0.75 0.75 0.0 0 0 453.19 377.61
  Q 454.13 379.30 455.45 379.63
  A 0.58 0.58 0.0 0 1 455.46 380.75
  L 450.80 382.03
  A 0.35 0.34 -43.3 0 0 450.78 382.69
  C 454.96 384.09 460.41 383.82 464.62 383.26
  A 3.87 3.86 49.6 0 1 466.31 383.40
  L 471.83 385.08
  A 1.20 1.19 -2.0 0 1 472.58 385.77
  L 473.13 387.17
  A 0.57 0.57 0.0 0 1 472.85 387.89
  L 471.60 388.52"
/>
<path stroke="#a0a19f" vector-effect="non-scaling-stroke" d="
  M 497.39 396.35
  Q 499.15 395.34 497.21 392.29
  Q 490.25 381.36 478.70 372.77
  Q 476.94 371.46 474.68 371.23
  A 0.62 0.62 0.0 0 0 474.18 372.28
  L 485.37 383.38"
/>
<path stroke="#a0a19f" vector-effect="non-scaling-stroke" d="
  M 475.14 389.50
  Q 474.89 388.29 471.60 388.52"
/>
<path stroke="#a0a19f" vector-effect="non-scaling-stroke" d="
  M 460.51 399.00
  Q 459.89 398.88 459.79 398.75
  Q 459.29 398.06 459.84 397.42
  Q 461.28 395.69 463.06 394.08"
/>
<path stroke="#a0a19f" vector-effect="non-scaling-stroke" d="
  M 468.44 389.77
  L 467.04 391.01"
/>
<path stroke="#222321" vector-effect="non-scaling-stroke" d="
  M 527.61 387.26
  L 522.06 394.57
  A 0.11 0.11 0.0 0 0 522.08 394.72
  L 522.11 394.74
  A 4.52 1.70 -52.8 0 0 526.19 392.17
  L 526.41 391.88
  A 4.52 1.70 -52.8 0 0 527.79 387.25
  L 527.77 387.24
  A 0.11 0.11 0.0 0 0 527.61 387.26"
/>
<path stroke="#7e7e7e" vector-effect="non-scaling-stroke" d="
  M 483.16 392.47
  L 482.15 390.85
  A 0.57 0.57 0.0 0 0 481.37 390.67
  L 473.19 395.74
  A 11.59 1.45 -31.8 0 0 464.11 403.08
  L 464.18 403.20
  A 11.59 1.45 -31.8 0 0 474.80 398.32
  L 482.97 393.25
  A 0.57 0.57 0.0 0 0 483.16 392.47"
/>
<path stroke="#222321" vector-effect="non-scaling-stroke" d="
  M 518.29 405.95
  L 519.63 407.76
  A 0.68 0.68 0.0 0 0 520.58 407.90
  L 520.79 407.75
  A 17.73 1.70 -36.6 0 0 534.01 395.82
  L 533.87 395.64
  A 17.73 1.70 -36.6 0 0 518.63 404.85
  L 518.43 404.99
  A 0.68 0.68 0.0 0 0 518.29 405.95"
/>
<path stroke="#7e7e7e" vector-effect="non-scaling-stroke" d="
  M 469.93 406.69
  A 0.65 0.64 -11.7 0 0 470.86 407.29
  Q 478.82 403.52 489.33 397.50
  A 0.58 0.58 0.0 0 0 489.47 396.60
  C 486.14 393.00 474.97 402.47 470.39 406.14
  Q 469.94 406.50 469.93 406.69"
/>
<path stroke="#222321" vector-effect="non-scaling-stroke" d="
  M 494.01 404.48
  L 493.66 404.92
  A 1.50 1.48 -26.7 0 0 493.34 405.87
  Q 493.44 409.93 492.21 412.96
  A 0.50 0.50 0.0 0 0 492.83 413.63
  C 495.71 412.69 496.65 407.30 496.91 404.73"
/>
<path stroke="#7e7e7e" vector-effect="non-scaling-stroke" d="
  M 496.91 404.73
  Q 496.99 402.95 496.06 401.49
  A 0.87 0.87 0.0 0 0 494.47 401.81
  L 494.01 404.48"
/>
<path stroke="#a0a19f" vector-effect="non-scaling-stroke" d="
  M 496.91 404.73
  Q 495.29 406.81 494.01 404.48"
/>
<path stroke="#222321" vector-effect="non-scaling-stroke" d="
  M 477.32 410.19
  A 1.11 1.10 -29.6 0 0 478.72 410.57
  Q 490.74 404.66 490.89 404.61
  Q 492.20 404.12 493.05 402.41
  A 0.85 0.85 0.0 0 0 492.15 401.19
  C 490.16 401.51 486.99 402.90 485.12 404.19
  Q 482.49 406.00 477.61 408.85
  A 0.92 0.92 0.0 0 0 477.30 410.15
  L 477.32 410.19"
/>
<path stroke="#222321" vector-effect="non-scaling-stroke" d="
  M 500.96 409.85
  L 500.21 414.27
  A 0.19 0.19 0.0 0 0 500.36 414.48
  L 500.48 414.50
  A 2.93 2.27 9.7 0 0 503.75 412.76
  L 503.80 412.45
  A 2.93 2.27 9.7 0 0 501.30 409.71
  L 501.18 409.69
  A 0.19 0.19 0.0 0 0 500.96 409.85"
/>
<path stroke="#7e7e7e" vector-effect="non-scaling-stroke" d="
  M 491.99 417.45
  L 480.03 417.85"
/>
<path stroke="#222321" vector-effect="non-scaling-stroke" d="
  M 480.03 417.85
  Q 474.90 417.53 469.89 416.15
  A 4.10 4.01 -36.2 0 0 468.91 416.01
  L 461.83 415.86
  A 7.00 6.90 50.6 0 1 460.60 415.73
  L 446.01 412.88
  A 0.45 0.44 65.8 0 0 445.70 413.70
  C 448.37 415.29 451.37 416.37 454.88 416.99
  Q 461.09 418.09 468.43 419.87
  Q 471.93 420.71 479.87 419.86"
/>
<path stroke="#7e7e7e" vector-effect="non-scaling-stroke" d="
  M 479.87 419.86
  Q 487.28 420.49 494.83 419.03"
/>
<path stroke="#222321" vector-effect="non-scaling-stroke" d="
  M 494.83 419.03
  Q 507.08 419.54 519.07 413.79
  Q 525.64 410.63 525.78 410.33
  A 0.34 0.33 8.4 0 0 525.43 409.86
  C 521.09 410.39 517.74 412.59 513.62 413.36
  Q 506.87 414.62 499.73 416.54
  A 1.12 0.34 -28.2 0 1 499.58 416.57
  L 491.99 417.45"
/>
<path stroke="#a0a19f" vector-effect="non-scaling-stroke" d="
  M 494.83 419.03
  Q 494.49 417.73 491.99 417.45"
/>
<path stroke="#a0a19f" vector-effect="non-scaling-stroke" d="
  M 480.03 417.85
  L 477.12 418.26
  A 0.21 0.20 52.5 0 0 477.07 418.65
  L 479.87 419.86"
/>
<path stroke="#222321" vector-effect="non-scaling-stroke" d="
  M 489.7743 412.1796
  A 1.93 0.90 -13.8 0 0 487.6853 411.7660
  A 1.93 0.90 -13.8 0 0 486.0257 413.1004
  A 1.93 0.90 -13.8 0 0 488.1147 413.5140
  A 1.93 0.90 -13.8 0 0 489.7743 412.1796"
/>
<path stroke="#222321" vector-effect="non-scaling-stroke" d="
  M 471.56 423.12
  L 447.90 422.13
  A 0.12 0.12 0.0 0 0 447.78 422.24
  L 447.78 422.27
  A 10.58 2.37 2.4 0 0 458.25 425.08
  L 461.01 425.20
  A 10.58 2.37 2.4 0 0 471.68 423.27
  L 471.68 423.24
  A 0.12 0.12 0.0 0 0 471.56 423.12"
/>
<path stroke="#7e7e7e" vector-effect="non-scaling-stroke" d="
  M 494.34 436.89
  Q 478.56 431.41 462.57 436.50"
/>
<path stroke="#222321" vector-effect="non-scaling-stroke" d="
  M 462.57 436.50
  C 457.01 436.00 450.85 438.88 447.25 439.68
  A 4.87 4.63 -65.7 0 0 445.85 440.25
  L 441.78 442.74
  A 1.90 1.90 0.0 0 0 440.90 444.70
  L 440.92 444.79
  A 1.42 1.42 0.0 0 0 442.76 445.78
  L 463.18 438.76"
/>
<path stroke="#7e7e7e" vector-effect="non-scaling-stroke" d="
  M 463.18 438.76
  Q 475.77 436.92 486.93 438.31"
/>
<path stroke="#222321" vector-effect="non-scaling-stroke" d="
  M 486.93 438.31
  Q 489.91 439.26 492.51 439.07
  A 3.18 2.91 -36.2 0 1 493.61 439.19
  Q 499.55 441.00 511.58 444.83
  Q 521.59 448.03 529.68 449.53
  Q 540.43 451.52 549.05 445.06
  C 551.39 443.31 552.95 440.83 553.04 437.99
  Q 553.26 430.23 547.22 424.45
  A 1.33 1.19 -11.9 0 0 546.72 424.16
  L 545.08 423.66
  A 0.96 0.95 6.0 0 0 543.85 424.65
  Q 543.96 425.91 544.46 426.99
  A 2.38 2.33 -81.3 0 0 545.02 427.77
  Q 548.35 430.82 549.97 436.09
  A 2.84 2.80 -54.9 0 1 550.10 436.87
  C 550.37 443.44 543.77 445.85 538.20 446.77
  Q 535.30 447.25 531.80 446.58
  Q 526.29 445.53 525.49 445.29
  Q 522.75 444.45 501.43 437.39
  A 1.68 1.39 50.4 0 0 501.01 437.31
  L 494.34 436.89"
/>
<path stroke="#a0a19f" vector-effect="non-scaling-stroke" d="
  M 486.93 438.31
  Q 489.17 438.28 493.24 438.86
  Q 496.42 439.30 494.34 436.89"
/>
<path stroke="#a0a19f" vector-effect="non-scaling-stroke" d="
  M 463.18 438.76
  Q 462.42 438.92 461.84 438.78
  Q 460.97 438.57 461.07 437.87
  Q 461.16 437.13 462.57 436.50"
/>
<path stroke="#222321" vector-effect="non-scaling-stroke" d="
  M 490.0284 426.5779
  A 2.48 0.87 -36.7 0 0 487.5201 427.3625
  A 2.48 0.87 -36.7 0 0 486.0516 429.5421
  A 2.48 0.87 -36.7 0 0 488.5599 428.7575
  A 2.48 0.87 -36.7 0 0 490.0284 426.5779"
/>
<path stroke="#222321" vector-effect="non-scaling-stroke" d="
  M 498.7153 426.5113
  A 2.69 1.01 -57.5 0 0 496.4182 428.2373
  A 2.69 1.01 -57.5 0 0 495.8247 431.0487
  A 2.69 1.01 -57.5 0 0 498.1218 429.3227
  A 2.69 1.01 -57.5 0 0 498.7153 426.5113"
/>
<path stroke="#222321" vector-effect="non-scaling-stroke" d="
  M 507.27 427.78
  L 505.74 433.45
  A 0.13 0.13 0.0 0 0 505.83 433.61
  L 505.86 433.62
  A 2.68 1.72 -74.9 0 0 508.22 431.48
  L 508.42 430.73
  A 2.68 1.72 -74.9 0 0 507.46 427.69
  L 507.43 427.68
  A 0.13 0.13 0.0 0 0 507.27 427.78"
/>
<path stroke="#222321" vector-effect="non-scaling-stroke" d="
  M 514.4276 427.8472
  A 3.45 0.63 -97.2 0 0 514.2350 431.3490
  A 3.45 0.63 -97.2 0 0 515.2924 434.6928
  A 3.45 0.63 -97.2 0 0 515.4850 431.1910
  A 3.45 0.63 -97.2 0 0 514.4276 427.8472"
/>
<path stroke="#7e7e7e" vector-effect="non-scaling-stroke" d="
  M 532.47 443.57
  A 0.40 0.39 25.8 0 0 532.69 444.19
  C 538.59 445.71 545.64 444.14 547.99 438.05
  A 1.98 1.97 47.6 0 0 548.04 436.81
  Q 546.86 432.69 543.40 429.76
  A 1.41 1.40 48.3 0 0 541.71 429.66
  Q 538.59 431.78 538.69 435.07
  A 0.98 0.95 63.9 0 1 538.49 435.69
  L 532.47 443.57"
/>
<path stroke="#a0a19f" vector-effect="non-scaling-stroke" d="
  M 524.6292 330.9608
  A 1.77 1.30 -98.8 0 0 523.6153 332.9089
  A 1.77 1.30 -98.8 0 0 525.1708 334.4592
  A 1.77 1.30 -98.8 0 0 526.1847 332.5111
  A 1.77 1.30 -98.8 0 0 524.6292 330.9608"
/>
<path stroke="#a0a19f" vector-effect="non-scaling-stroke" d="
  M 539.77 338.73
  A 1.38 1.38 0.0 0 0 538.39 337.35
  A 1.38 1.38 0.0 0 0 537.01 338.73
  A 1.38 1.38 0.0 0 0 538.39 340.11
  A 1.38 1.38 0.0 0 0 539.77 338.73"
/>
<path stroke="#a0a19f" vector-effect="non-scaling-stroke" d="
  M 487.2263 368.3476
  A 2.71 1.21 -15.9 0 0 484.2885 367.9263
  A 2.71 1.21 -15.9 0 0 482.0137 369.8324
  A 2.71 1.21 -15.9 0 0 484.9515 370.2537
  A 2.71 1.21 -15.9 0 0 487.2263 368.3476"
/>
<path stroke="#a0a19f" vector-effect="non-scaling-stroke" d="
  M 497.19 387.77
  L 499.77 387.77
  A 0.11 0.11 0.0 0 0 499.88 387.66
  L 499.88 384.62
  A 13.71 1.40 89.9 0 0 498.46 370.91
  A 13.71 1.40 89.9 0 0 497.08 384.62
  L 497.08 387.66
  A 0.11 0.11 0.0 0 0 497.19 387.77"
/>
<path stroke="#a0a19f" vector-effect="non-scaling-stroke" d="
  M 490.8574 373.8270
  A 2.30 0.66 -13.4 0 0 488.4670 373.7180
  A 2.30 0.66 -13.4 0 0 486.3826 374.8930
  A 2.30 0.66 -13.4 0 0 488.7730 375.0020
  A 2.30 0.66 -13.4 0 0 490.8574 373.8270"
/>
<path stroke="#222321" vector-effect="non-scaling-stroke" d="
  M 500.81 380.93
  A 1.08 1.07 -54.5 0 0 501.08 382.57
  L 503.29 383.84
  A 1.25 1.25 0.0 0 0 505.10 383.16
  Q 505.57 381.77 505.27 380.74
  A 0.85 0.84 86.2 0 0 504.58 380.13
  Q 501.88 379.70 500.81 380.93"
/>
<path stroke="#222321" vector-effect="non-scaling-stroke" d="
  M 502.14 390.33
  Q 503.24 389.42 504.68 388.94
  A 1.17 1.17 0.0 0 0 504.54 386.68
  L 501.09 386.01
  A 0.58 0.57 1.9 0 0 500.41 386.64
  L 500.77 389.78
  A 0.84 0.84 0.0 0 0 502.14 390.33"
/>
</g>
<path fill="#fcfcfc" d="
  M 620.00 0.00
  L 620.00 506.00
  L 0.00 506.00
  L 0.00 0.00
  L 620.00 0.00
  Z
  M 452.37 449.74
  Q 451.62 452.16 451.21 452.71
  Q 444.78 461.39 443.91 463.33
  A 6.28 6.27 -11.3 0 1 442.68 465.17
  L 440.82 467.05
  A 3.03 3.02 -41.8 0 0 440.59 471.04
  L 440.92 471.46
  A 2.04 2.03 -41.2 0 0 443.90 471.65
  L 448.37 467.44
  A 4.54 4.46 84.3 0 0 449.11 466.52
  Q 451.36 462.86 456.20 457.94
  A 0.71 0.71 0.0 0 1 457.39 458.62
  Q 456.91 460.43 455.81 462.15
  C 453.70 465.46 452.76 468.53 450.22 474.47
  Q 449.56 476.02 449.89 477.91
  A 2.48 2.38 77.9 0 0 452.84 479.91
  Q 453.67 479.70 454.53 478.51
  Q 459.92 471.07 463.20 462.47
  Q 464.64 460.02 466.63 458.31
  C 468.02 457.12 469.18 457.41 470.73 457.48
  Q 471.24 457.51 473.41 459.05
  Q 475.84 460.77 478.03 460.18
  Q 482.77 458.90 486.11 459.80
  A 1.44 1.43 80.5 0 1 486.93 460.39
  L 487.57 461.38
  A 1.35 1.35 0.0 0 0 488.64 461.99
  C 492.70 462.22 493.93 461.09 497.54 458.40
  A 1.65 1.62 -61.0 0 1 498.66 458.07
  L 500.23 458.20
  A 4.69 4.64 39.4 0 0 501.86 458.05
  L 509.79 455.87
  A 6.19 6.14 -68.4 0 0 511.32 455.20
  L 512.91 454.23
  A 1.37 1.36 37.9 0 1 513.99 454.10
  C 516.69 454.94 519.50 455.74 521.13 452.19
  A 1.60 1.60 0.0 0 1 522.90 451.29
  Q 526.95 452.10 529.46 453.04
  Q 531.15 453.68 538.19 453.66
  A 4.26 3.94 -50.8 0 0 539.32 453.50
  C 546.43 451.47 551.48 450.11 555.12 443.91
  Q 557.25 440.29 556.94 437.72
  C 556.66 435.35 555.77 430.93 554.55 429.00
  C 552.31 425.46 549.60 422.97 546.21 419.49
  A 3.14 2.93 37.0 0 1 545.60 416.00
  C 546.68 413.90 545.82 411.90 546.61 409.70
  Q 547.24 407.97 546.60 405.66
  C 546.00 403.53 546.69 401.87 546.90 399.82
  A 0.44 0.31 -61.5 0 0 546.88 399.64
  L 537.60 376.09
  A 3.84 3.74 -77.9 0 0 536.82 374.85
  L 525.71 363.02
  Q 527.41 360.16 529.53 357.32
  C 532.52 353.33 535.22 348.63 538.34 345.55
  Q 538.93 344.97 541.43 343.43
  A 2.30 2.25 -2.2 0 0 542.20 342.62
  Q 543.51 340.23 543.76 337.91
  A 1.70 1.69 16.5 0 0 542.83 336.21
  L 538.28 333.95
  A 1.66 1.66 0.0 0 0 536.26 334.37
  Q 534.10 336.99 532.75 340.67
  A 8.82 8.65 -17.1 0 1 531.58 342.83
  L 519.00 359.68
  Q 516.76 360.31 516.54 357.96
  Q 519.32 351.98 522.25 346.06
  C 523.75 343.04 524.57 340.23 526.74 338.04
  Q 529.20 335.56 529.61 333.62
  C 530.37 329.96 525.57 324.63 522.38 328.89
  Q 520.55 331.34 518.28 338.07
  A 2.17 1.23 -81.1 0 1 518.17 338.34
  L 510.63 353.50
  A 2.03 2.02 10.9 0 1 508.97 354.62
  L 505.98 354.86
  Q 503.81 355.66 501.89 355.30
  A 1.56 1.55 76.2 0 1 500.96 354.73
  Q 499.09 352.29 495.34 352.40
  A 2.39 2.35 -53.6 0 0 494.77 352.49
  Q 489.04 354.15 486.00 354.15
  Q 479.36 354.15 476.91 355.16
  Q 467.52 358.99 462.51 361.27
  Q 455.58 364.43 448.92 372.18
  Q 448.81 372.31 445.14 377.07
  C 442.25 380.81 439.97 385.70 438.57 388.84
  A 14.58 13.79 -27.0 0 0 437.82 390.95
  Q 437.75 391.25 435.85 400.75
  Q 434.90 405.49 435.64 409.76
  A 0.52 0.51 3.3 0 1 434.98 410.34
  C 432.46 409.58 429.49 409.23 426.34 408.03
  C 417.99 404.84 410.17 402.01 403.13 397.89
  Q 374.76 381.30 354.32 360.43
  C 346.57 352.50 337.11 341.94 328.14 333.15
  Q 316.02 321.29 308.98 313.78
  C 295.68 299.59 289.69 293.68 277.59 281.34
  Q 270.23 273.84 264.86 267.84
  Q 262.34 265.03 253.31 256.21
  C 246.35 249.41 239.04 240.99 232.03 234.39
  A 0.89 0.89 0.0 0 1 231.87 233.29
  C 233.73 230.16 236.73 227.88 238.70 225.22
  Q 241.54 221.37 251.75 210.26
  Q 254.24 207.55 263.54 196.46
  C 266.92 192.44 270.47 189.25 273.17 185.40
  Q 275.38 182.26 280.39 177.12
  Q 287.01 170.34 291.63 164.23
  C 295.65 158.93 300.26 154.40 304.97 149.05
  Q 305.98 147.89 310.42 142.34
  Q 319.53 130.94 333.22 125.62
  A 12.30 11.77 -58.2 0 1 335.97 124.91
  Q 342.19 124.08 349.30 122.80
  Q 350.82 122.53 352.17 121.56
  A 1.38 1.38 0.0 0 0 352.56 119.74
  Q 351.66 118.22 350.60 117.10
  Q 349.82 116.28 347.69 116.54
  Q 340.81 117.39 336.99 117.44
  Q 306.88 117.83 289.25 118.04
  Q 285.78 118.08 279.66 117.45
  A 3.71 3.70 -75.5 0 0 275.89 119.68
  L 275.83 119.82
  A 2.36 2.36 0.0 0 0 277.62 123.08
  C 282.67 123.92 288.36 124.62 290.03 129.82
  C 291.65 134.88 285.80 140.65 282.38 144.26
  A 8.54 8.36 -7.5 0 0 281.40 145.51
  C 278.86 149.47 277.00 152.53 274.08 155.78
  Q 271.00 159.20 270.03 160.64
  C 267.20 164.86 263.47 168.59 260.67 172.69
  C 256.46 178.86 251.60 184.25 247.89 189.62
  Q 246.86 191.12 244.43 193.73
  C 241.49 196.89 239.00 201.21 236.33 204.49
  Q 230.95 211.12 226.49 217.14
  A 0.37 0.37 0.0 0 1 225.84 217.01
  Q 225.53 215.87 225.51 214.50
  Q 225.19 191.77 224.78 140.22
  Q 224.76 138.51 224.61 135.77
  Q 224.26 129.38 226.76 122.88
  A 6.88 6.74 76.5 0 1 227.97 120.86
  Q 230.87 117.51 230.95 117.43
  C 234.59 113.15 238.72 111.58 244.50 110.16
  C 247.15 109.50 249.82 112.04 251.92 108.41
  A 1.47 1.41 -35.5 0 0 252.10 107.46
  C 251.64 104.37 250.42 103.34 247.08 103.95
  Q 243.98 104.52 222.75 104.92
  Q 205.91 105.24 194.30 105.28
  C 191.58 105.28 189.20 105.85 187.13 105.34
  C 183.88 104.55 179.73 105.18 176.46 104.48
  A 2.73 2.73 0.0 0 0 173.16 106.93
  L 173.08 107.86
  A 3.00 3.00 0.0 0 0 176.38 111.08
  Q 186.09 110.09 193.13 116.50
  Q 198.00 120.95 199.00 123.34
  Q 201.03 128.19 201.11 134.93
  Q 202.18 227.84 202.72 324.99
  Q 202.76 332.20 197.39 338.54
  C 196.07 340.10 193.59 343.04 191.42 344.13
  Q 186.54 346.59 178.36 346.66
  A 2.79 2.79 0.0 0 0 175.63 349.92
  L 175.67 350.12
  A 3.59 3.59 0.0 0 0 179.52 353.09
  Q 192.95 351.93 208.01 351.96
  Q 213.06 351.97 237.01 351.43
  C 240.50 351.35 243.78 351.64 247.85 351.18
  A 1.01 0.95 46.7 0 1 248.19 351.20
  L 251.36 351.94
  A 1.15 1.14 -68.8 0 0 252.61 351.38
  Q 253.64 349.56 253.82 348.44
  A 1.81 1.81 0.0 0 0 251.88 346.35
  C 244.71 346.95 236.98 344.58 232.13 338.73
  C 227.63 333.31 226.30 327.02 226.50 319.59
  Q 226.53 318.80 225.93 266.42
  A 1.06 1.06 0.0 0 1 227.41 265.44
  C 228.47 265.91 230.23 268.40 232.17 270.73
  Q 234.35 273.35 237.83 276.63
  Q 248.09 286.30 256.62 295.92
  C 260.06 299.80 264.43 303.57 267.34 307.31
  C 269.48 310.07 272.28 312.21 274.58 315.01
  C 278.67 319.99 283.59 323.48 287.72 328.75
  Q 290.56 332.37 296.77 337.96
  Q 300.81 341.60 307.49 349.29
  C 314.43 357.28 321.67 364.25 328.96 371.84
  Q 332.90 375.94 338.81 381.12
  Q 344.37 385.99 350.32 390.95
  Q 351.53 391.96 352.39 392.70
  Q 353.41 393.58 354.56 394.30
  Q 367.68 402.50 370.54 404.19
  Q 383.93 412.06 398.07 416.91
  C 402.10 418.30 405.17 418.62 408.73 419.76
  Q 410.97 420.47 416.85 421.35
  Q 427.72 422.98 436.48 423.21
  A 2.77 2.77 0.0 0 1 439.15 425.51
  C 439.78 429.13 441.49 430.21 443.66 432.63
  A 1.79 1.76 -67.1 0 1 444.11 433.76
  Q 444.22 437.38 443.20 439.16
  A 3.47 3.43 1.7 0 1 441.75 440.51
  C 439.31 441.71 435.94 442.97 436.84 446.50
  C 437.40 448.72 439.25 449.11 441.31 449.43
  Q 442.14 449.56 445.19 448.06
  Q 448.14 446.60 450.79 446.50
  Q 452.98 446.41 452.37 449.74
  Z
  M 256.22 170.68
  A 2.48 2.48 0.0 0 0 258.66 168.14
  Q 258.25 153.56 257.81 134.31
  Q 257.77 132.77 257.96 131.21
  C 258.21 129.11 257.10 124.69 254.25 125.10
  C 246.00 126.30 240.14 125.52 231.83 124.14
  A 2.01 2.00 12.0 0 0 229.56 125.61
  C 228.94 127.94 227.75 134.47 229.03 136.39
  A 4.28 4.19 5.1 0 0 229.74 137.22
  C 231.36 138.65 234.38 139.58 236.67 141.07
  Q 241.76 144.37 243.19 145.82
  Q 248.64 151.40 251.93 159.80
  A 7.97 7.96 30.9 0 1 252.45 161.87
  L 253.20 168.26
  A 2.74 2.74 0.0 0 0 255.94 170.68
  L 256.22 170.68
  Z
  M 195.38 125.83
  Q 191.68 125.48 190.26 126.02
  C 180.03 129.91 170.77 135.88 164.11 144.53
  Q 155.76 155.36 152.75 166.47
  Q 150.08 176.32 150.68 188.84
  Q 151.26 200.72 156.74 210.28
  Q 162.36 220.09 169.78 225.47
  C 174.92 229.20 177.94 232.87 183.25 236.11
  C 186.65 238.18 191.23 242.36 195.35 245.12
  A 1.54 1.51 -27.0 0 0 196.17 245.38
  Q 198.28 245.43 198.27 243.45
  Q 198.22 229.62 197.88 217.89
  Q 197.81 215.55 196.45 214.35
  Q 191.05 209.57 186.95 206.32
  C 180.02 200.83 174.58 194.06 172.54 185.98
  C 169.04 172.09 172.22 157.79 182.30 147.39
  C 186.71 142.84 189.67 140.39 195.12 138.11
  C 198.51 136.69 196.85 128.63 196.09 126.39
  A 0.83 0.82 -6.5 0 0 195.38 125.83
  Z
  M 263.85 309.96
  Q 263.43 310.90 263.74 312.76
  C 264.40 316.80 266.54 322.89 266.73 328.13
  Q 266.99 335.37 265.39 343.95
  Q 265.20 344.97 263.00 352.45
  Q 261.62 357.13 259.69 360.57
  Q 247.28 382.72 222.65 389.39
  C 217.67 390.74 212.44 392.13 208.55 392.32
  Q 201.66 392.66 194.20 392.45
  C 189.03 392.30 184.29 390.57 179.29 389.79
  A 9.47 9.26 61.2 0 1 176.77 389.03
  C 166.25 384.22 157.64 379.02 149.63 370.15
  Q 141.41 361.04 138.36 349.45
  C 135.53 338.68 135.91 327.09 137.58 316.04
  Q 138.35 310.94 141.29 303.05
  Q 145.51 291.76 151.46 284.93
  C 152.92 283.27 153.16 280.94 152.12 279.23
  A 1.34 1.32 71.8 0 0 150.87 278.59
  Q 147.73 278.86 146.36 280.38
  Q 145.10 281.78 138.86 289.28
  A 11.97 11.61 80.0 0 0 137.58 291.17
  C 135.13 295.65 131.07 302.57 129.45 308.27
  Q 128.47 311.73 127.01 316.31
  C 124.38 324.57 124.34 331.69 124.84 341.22
  Q 125.27 349.25 128.41 357.55
  Q 132.30 367.83 135.48 373.28
  Q 143.94 387.73 160.24 396.81
  Q 165.25 399.60 169.69 401.54
  A 8.49 8.22 62.6 0 0 170.94 401.96
  C 174.59 402.89 177.33 404.38 180.90 404.87
  Q 183.84 405.27 186.55 406.19
  A 10.01 9.91 -33.3 0 0 189.08 406.70
  C 192.84 406.95 196.79 407.67 201.03 407.65
  Q 214.50 407.60 219.98 407.14
  Q 238.17 405.58 254.73 396.45
  C 257.20 395.09 260.01 392.50 262.75 390.65
  C 271.69 384.60 279.10 374.71 284.64 364.84
  Q 286.63 361.31 287.80 357.74
  C 289.69 351.99 294.18 340.08 290.45 336.04
  Q 284.04 329.11 281.90 326.56
  C 280.11 324.44 277.91 323.13 276.51 321.05
  Q 275.35 319.32 272.43 316.99
  Q 268.74 314.05 265.55 309.77
  A 0.99 0.99 0.0 0 0 263.85 309.96
  Z"
/>
<path fill="#000000" d="
  M 505.98 354.86
  Q 508.16 355.69 510.25 355.53
  A 0.97 0.96 -22.7 0 1 511.06 355.86
  C 512.61 357.64 514.63 357.11 516.54 357.96
  Q 516.76 360.31 519.00 359.68
  Q 519.65 360.00 521.69 361.58
  Q 523.46 362.95 525.71 363.02
  L 536.82 374.85
  A 3.84 3.74 -77.9 0 1 537.60 376.09
  L 546.88 399.64
  A 0.44 0.31 -61.5 0 1 546.90 399.82
  C 546.69 401.87 546.00 403.53 546.60 405.66
  Q 547.24 407.97 546.61 409.70
  C 545.82 411.90 546.68 413.90 545.60 416.00
  A 3.14 2.93 37.0 0 0 546.21 419.49
  C 549.60 422.97 552.31 425.46 554.55 429.00
  C 555.77 430.93 556.66 435.35 556.94 437.72
  Q 557.25 440.29 555.12 443.91
  C 551.48 450.11 546.43 451.47 539.32 453.50
  A 4.26 3.94 -50.8 0 1 538.19 453.66
  Q 531.15 453.68 529.46 453.04
  Q 526.95 452.10 522.90 451.29
  A 1.60 1.60 0.0 0 0 521.13 452.19
  C 519.50 455.74 516.69 454.94 513.99 454.10
  A 1.37 1.36 37.9 0 0 512.91 454.23
  L 511.32 455.20
  A 6.19 6.14 -68.4 0 1 509.79 455.87
  L 501.86 458.05
  A 4.69 4.64 39.4 0 1 500.23 458.20
  L 498.66 458.07
  A 1.65 1.62 -61.0 0 0 497.54 458.40
  C 493.93 461.09 492.70 462.22 488.64 461.99
  A 1.35 1.35 0.0 0 1 487.57 461.38
  L 486.93 460.39
  A 1.44 1.43 80.5 0 0 486.11 459.80
  Q 482.77 458.90 478.03 460.18
  Q 475.84 460.77 473.41 459.05
  Q 471.24 457.51 470.73 457.48
  C 469.18 457.41 468.02 457.12 466.63 458.31
  Q 464.64 460.02 463.20 462.47
  L 462.30 462.98
  A 0.47 0.47 0.0 0 1 461.64 462.37
  L 464.11 457.41
  A 0.83 0.83 0.0 0 0 464.16 456.79
  Q 463.67 455.22 462.06 454.15
  Q 456.96 450.76 455.42 449.70
  Q 454.88 449.32 454.51 449.37
  Q 453.99 449.43 453.65 449.83
  Q 453.38 450.15 453.01 450.12
  Q 452.63 450.09 452.37 449.74
  Q 452.98 446.41 450.79 446.50
  Q 448.14 446.60 445.19 448.06
  Q 442.14 449.56 441.31 449.43
  C 439.25 449.11 437.40 448.72 436.84 446.50
  C 435.94 442.97 439.31 441.71 441.75 440.51
  A 3.47 3.43 1.7 0 0 443.20 439.16
  Q 444.22 437.38 444.11 433.76
  A 1.79 1.76 -67.1 0 0 443.66 432.63
  C 441.49 430.21 439.78 429.13 439.15 425.51
  A 2.77 2.77 0.0 0 0 436.48 423.21
  Q 427.72 422.98 416.85 421.35
  Q 410.97 420.47 408.73 419.76
  C 405.17 418.62 402.10 418.30 398.07 416.91
  Q 383.93 412.06 370.54 404.19
  Q 367.68 402.50 354.56 394.30
  Q 353.41 393.58 352.39 392.70
  Q 351.53 391.96 350.32 390.95
  Q 344.37 385.99 338.81 381.12
  Q 332.90 375.94 328.96 371.84
  C 321.67 364.25 314.43 357.28 307.49 349.29
  Q 300.81 341.60 296.77 337.96
  Q 290.56 332.37 287.72 328.75
  C 283.59 323.48 278.67 319.99 274.58 315.01
  C 272.28 312.21 269.48 310.07 267.34 307.31
  C 264.43 303.57 260.06 299.80 256.62 295.92
  Q 248.09 286.30 237.83 276.63
  Q 234.35 273.35 232.17 270.73
  C 230.23 268.40 228.47 265.91 227.41 265.44
  A 1.06 1.06 0.0 0 0 225.93 266.42
  Q 226.53 318.80 226.50 319.59
  C 226.30 327.02 227.63 333.31 232.13 338.73
  C 236.98 344.58 244.71 346.95 251.88 346.35
  A 1.81 1.81 0.0 0 1 253.82 348.44
  Q 253.64 349.56 252.61 351.38
  A 1.15 1.14 -68.8 0 1 251.36 351.94
  L 248.19 351.20
  A 1.01 0.95 46.7 0 0 247.85 351.18
  C 243.78 351.64 240.50 351.35 237.01 351.43
  Q 213.06 351.97 208.01 351.96
  Q 192.95 351.93 179.52 353.09
  A 3.59 3.59 0.0 0 1 175.67 350.12
  L 175.63 349.92
  A 2.79 2.79 0.0 0 1 178.36 346.66
  Q 186.54 346.59 191.42 344.13
  C 193.59 343.04 196.07 340.10 197.39 338.54
  Q 202.76 332.20 202.72 324.99
  Q 202.18 227.84 201.11 134.93
  Q 201.03 128.19 199.00 123.34
  Q 198.00 120.95 193.13 116.50
  Q 186.09 110.09 176.38 111.08
  A 3.00 3.00 0.0 0 1 173.08 107.86
  L 173.16 106.93
  A 2.73 2.73 0.0 0 1 176.46 104.48
  C 179.73 105.18 183.88 104.55 187.13 105.34
  C 189.20 105.85 191.58 105.28 194.30 105.28
  Q 205.91 105.24 222.75 104.92
  Q 243.98 104.52 247.08 103.95
  C 250.42 103.34 251.64 104.37 252.10 107.46
  A 1.47 1.41 -35.5 0 1 251.92 108.41
  C 249.82 112.04 247.15 109.50 244.50 110.16
  C 238.72 111.58 234.59 113.15 230.95 117.43
  Q 230.87 117.51 227.97 120.86
  A 6.88 6.74 76.5 0 0 226.76 122.88
  Q 224.26 129.38 224.61 135.77
  Q 224.76 138.51 224.78 140.22
  Q 225.19 191.77 225.51 214.50
  Q 225.53 215.87 225.84 217.01
  A 0.37 0.37 0.0 0 0 226.49 217.14
  Q 230.95 211.12 236.33 204.49
  C 239.00 201.21 241.49 196.89 244.43 193.73
  Q 246.86 191.12 247.89 189.62
  C 251.60 184.25 256.46 178.86 260.67 172.69
  C 263.47 168.59 267.20 164.86 270.03 160.64
  Q 271.00 159.20 274.08 155.78
  C 277.00 152.53 278.86 149.47 281.40 145.51
  A 8.54 8.36 -7.5 0 1 282.38 144.26
  C 285.80 140.65 291.65 134.88 290.03 129.82
  C 288.36 124.62 282.67 123.92 277.62 123.08
  A 2.36 2.36 0.0 0 1 275.83 119.82
  L 275.89 119.68
  A 3.71 3.70 -75.5 0 1 279.66 117.45
  Q 285.78 118.08 289.25 118.04
  Q 306.88 117.83 336.99 117.44
  Q 340.81 117.39 347.69 116.54
  Q 349.82 116.28 350.60 117.10
  Q 351.66 118.22 352.56 119.74
  A 1.38 1.38 0.0 0 1 352.17 121.56
  Q 350.82 122.53 349.30 122.80
  Q 342.19 124.08 335.97 124.91
  A 12.30 11.77 -58.2 0 0 333.22 125.62
  Q 319.53 130.94 310.42 142.34
  Q 305.98 147.89 304.97 149.05
  C 300.26 154.40 295.65 158.93 291.63 164.23
  Q 287.01 170.34 280.39 177.12
  Q 275.38 182.26 273.17 185.40
  C 270.47 189.25 266.92 192.44 263.54 196.46
  Q 254.24 207.55 251.75 210.26
  Q 241.54 221.37 238.70 225.22
  C 236.73 227.88 233.73 230.16 231.87 233.29
  A 0.89 0.89 0.0 0 0 232.03 234.39
  C 239.04 240.99 246.35 249.41 253.31 256.21
  Q 262.34 265.03 264.86 267.84
  Q 270.23 273.84 277.59 281.34
  C 289.69 293.68 295.68 299.59 308.98 313.78
  Q 316.02 321.29 328.14 333.15
  C 337.11 341.94 346.57 352.50 354.32 360.43
  Q 374.76 381.30 403.13 397.89
  C 410.17 402.01 417.99 404.84 426.34 408.03
  C 429.49 409.23 432.46 409.58 434.98 410.34
  A 0.52 0.51 3.3 0 0 435.64 409.76
  Q 434.90 405.49 435.85 400.75
  Q 437.75 391.25 437.82 390.95
  A 14.58 13.79 -27.0 0 1 438.57 388.84
  C 439.97 385.70 442.25 380.81 445.14 377.07
  Q 448.81 372.31 448.92 372.18
  Q 455.58 364.43 462.51 361.27
  Q 467.52 358.99 476.91 355.16
  Q 479.36 354.15 486.00 354.15
  Q 489.04 354.15 494.77 352.49
  A 2.39 2.35 -53.6 0 1 495.34 352.40
  Q 499.09 352.29 500.96 354.73
  A 1.56 1.55 76.2 0 0 501.89 355.30
  Q 503.81 355.66 505.98 354.86
  Z
  M 471.60 388.52
  L 468.44 389.77
  Q 468.54 386.48 465.27 386.20
  Q 459.66 385.70 457.01 385.95
  Q 456.96 385.96 456.91 385.97
  L 449.00 387.84
  A 3.42 3.30 -64.4 0 0 448.14 388.16
  L 447.84 388.35
  A 0.37 0.37 0.0 0 0 448.00 389.04
  L 466.75 390.57
  A 0.25 0.25 0.0 0 1 466.98 390.77
  Q 467.01 390.90 467.04 391.01
  L 463.06 394.08
  Q 461.19 394.14 461.11 392.57
  A 0.55 0.55 0.0 0 0 460.46 392.06
  L 455.78 392.89
  A 1.17 0.80 29.0 0 1 455.57 392.91
  Q 451.68 392.63 449.32 393.92
  A 0.69 0.69 0.0 0 0 449.60 395.21
  L 457.62 395.87
  A 0.49 0.49 0.0 0 1 457.92 396.71
  Q 456.26 398.26 456.14 399.84
  A 1.45 1.45 0.0 0 1 453.97 400.99
  L 445.86 396.31
  A 0.61 0.60 87.0 0 0 445.07 397.19
  Q 447.25 400.22 450.37 402.17
  A 6.90 6.86 -6.5 0 1 451.41 402.99
  Q 455.36 406.82 461.30 405.72
  A 0.34 0.34 0.0 0 0 461.31 405.06
  Q 458.01 404.34 456.50 402.06
  A 0.56 0.56 0.0 0 1 456.76 401.23
  Q 458.92 400.40 460.51 399.00
  L 475.14 389.50
  L 481.30 387.27
  A 1.13 1.13 0.0 0 0 481.75 386.98
  Q 482.34 386.39 482.65 385.23
  A 1.59 1.56 -13.9 0 1 483.11 384.48
  Q 483.95 383.69 485.37 383.38
  L 497.39 396.35
  Q 498.33 398.59 499.95 400.73
  C 502.82 404.53 504.74 407.97 507.62 411.53
  A 0.44 0.44 0.0 0 0 508.41 411.26
  Q 508.42 409.90 507.67 408.07
  Q 504.16 399.50 498.80 392.48
  A 0.95 0.95 0.0 0 1 498.81 391.31
  L 498.83 391.29
  A 0.71 0.71 0.0 0 1 499.88 391.23
  Q 502.24 393.56 504.49 393.79
  A 0.64 0.63 84.6 0 1 505.04 394.25
  L 505.68 396.58
  A 1.01 1.01 0.0 0 0 507.55 396.79
  Q 508.25 395.47 508.87 393.53
  Q 510.28 389.04 510.70 382.68
  A 2.01 1.99 66.4 0 1 511.13 381.56
  Q 512.47 379.86 512.75 377.84
  A 0.48 0.47 -45.5 0 1 513.69 377.83
  Q 514.59 383.94 512.53 388.27
  A 3.73 3.53 -29.4 0 0 512.21 389.31
  Q 511.82 391.95 510.40 393.99
  Q 508.78 396.29 508.36 397.61
  A 2.62 2.62 0.0 0 0 509.54 400.69
  L 509.82 400.85
  A 1.71 1.71 0.0 0 0 512.23 400.10
  L 516.45 391.19
  A 2.35 2.04 67.5 0 0 516.59 390.77
  L 517.71 385.75
  A 1.14 1.11 -25.9 0 1 517.80 385.50
  C 520.81 379.31 520.89 375.83 520.38 368.40
  Q 520.35 368.02 520.09 367.91
  A 0.70 0.65 15.7 0 0 519.14 368.40
  Q 518.78 370.88 517.11 372.62
  A 1.28 1.23 -19.5 0 0 516.77 373.30
  Q 516.63 374.21 516.43 374.39
  A 0.36 0.35 -17.4 0 1 515.83 374.08
  L 516.32 371.13
  A 1.17 1.13 -53.3 0 0 516.24 370.50
  L 513.67 364.88
  A 0.30 0.30 0.0 0 0 513.14 364.86
  L 512.24 366.42
  A 0.81 0.81 0.0 0 1 510.77 366.25
  Q 509.73 362.80 507.75 360.57
  A 1.55 1.55 0.0 0 0 505.07 361.30
  L 504.44 364.50
  A 1.06 1.06 0.0 0 1 503.02 365.29
  Q 502.44 365.07 502.24 364.74
  Q 500.09 361.20 498.02 358.26
  Q 497.47 357.47 496.74 357.30
  A 1.36 1.13 -80.6 0 0 495.33 358.52
  Q 495.12 360.25 495.10 364.38
  A 0.07 0.07 0.0 0 1 495.04 364.45
  L 494.50 364.60
  A 0.38 0.37 -2.1 0 1 494.03 364.17
  Q 494.51 361.86 492.87 360.97
  A 1.53 1.53 0.0 0 1 492.15 360.08
  Q 491.22 357.02 487.77 357.63
  Q 483.79 358.33 479.03 358.60
  A 3.70 3.61 32.5 0 0 477.93 358.83
  L 470.93 361.43
  A 1.23 1.22 39.3 0 0 471.17 363.79
  Q 472.50 364.00 472.85 364.11
  Q 474.25 364.53 474.23 365.48
  A 1.49 1.49 0.0 0 1 471.70 366.52
  Q 469.30 364.19 465.89 364.99
  A 0.89 0.88 -17.1 0 0 465.26 366.17
  L 466.21 368.56
  A 0.57 0.57 0.0 0 1 465.56 369.33
  L 462.19 368.68
  A 1.31 1.31 0.0 0 0 461.01 370.89
  L 462.11 371.99
  A 0.63 0.63 0.0 0 1 461.61 373.07
  L 457.22 372.71
  A 0.54 0.54 0.0 0 0 456.79 373.63
  L 458.06 374.90
  A 1.10 1.10 0.0 0 1 457.20 376.77
  L 453.91 376.50
  A 0.75 0.75 0.0 0 0 453.19 377.61
  Q 454.13 379.30 455.45 379.63
  A 0.58 0.58 0.0 0 1 455.46 380.75
  L 450.80 382.03
  A 0.35 0.34 -43.3 0 0 450.78 382.69
  C 454.96 384.09 460.41 383.82 464.62 383.26
  A 3.87 3.86 49.6 0 1 466.31 383.40
  L 471.83 385.08
  A 1.20 1.19 -2.0 0 1 472.58 385.77
  L 473.13 387.17
  A 0.57 0.57 0.0 0 1 472.85 387.89
  L 471.60 388.52
  Z
  M 527.61 387.26
  L 522.06 394.57
  A 0.11 0.11 0.0 0 0 522.08 394.72
  L 522.11 394.74
  A 4.52 1.70 -52.8 0 0 526.19 392.17
  L 526.41 391.88
  A 4.52 1.70 -52.8 0 0 527.79 387.25
  L 527.77 387.24
  A 0.11 0.11 0.0 0 0 527.61 387.26
  Z
  M 483.16 392.47
  L 482.15 390.85
  A 0.57 0.57 0.0 0 0 481.37 390.67
  L 473.19 395.74
  A 11.59 1.45 -31.8 0 0 464.11 403.08
  L 464.18 403.20
  A 11.59 1.45 -31.8 0 0 474.80 398.32
  L 482.97 393.25
  A 0.57 0.57 0.0 0 0 483.16 392.47
  Z
  M 518.29 405.95
  L 519.63 407.76
  A 0.68 0.68 0.0 0 0 520.58 407.90
  L 520.79 407.75
  A 17.73 1.70 -36.6 0 0 534.01 395.82
  L 533.87 395.64
  A 17.73 1.70 -36.6 0 0 518.63 404.85
  L 518.43 404.99
  A 0.68 0.68 0.0 0 0 518.29 405.95
  Z
  M 469.93 406.69
  A 0.65 0.64 -11.7 0 0 470.86 407.29
  Q 478.82 403.52 489.33 397.50
  A 0.58 0.58 0.0 0 0 489.47 396.60
  C 486.14 393.00 474.97 402.47 470.39 406.14
  Q 469.94 406.50 469.93 406.69
  Z
  M 494.01 404.48
  L 493.66 404.92
  A 1.50 1.48 -26.7 0 0 493.34 405.87
  Q 493.44 409.93 492.21 412.96
  A 0.50 0.50 0.0 0 0 492.83 413.63
  C 495.71 412.69 496.65 407.30 496.91 404.73
  Q 496.99 402.95 496.06 401.49
  A 0.87 0.87 0.0 0 0 494.47 401.81
  L 494.01 404.48
  Z
  M 477.32 410.19
  A 1.11 1.10 -29.6 0 0 478.72 410.57
  Q 490.74 404.66 490.89 404.61
  Q 492.20 404.12 493.05 402.41
  A 0.85 0.85 0.0 0 0 492.15 401.19
  C 490.16 401.51 486.99 402.90 485.12 404.19
  Q 482.49 406.00 477.61 408.85
  A 0.92 0.92 0.0 0 0 477.30 410.15
  L 477.32 410.19
  Z
  M 500.96 409.85
  L 500.21 414.27
  A 0.19 0.19 0.0 0 0 500.36 414.48
  L 500.48 414.50
  A 2.93 2.27 9.7 0 0 503.75 412.76
  L 503.80 412.45
  A 2.93 2.27 9.7 0 0 501.30 409.71
  L 501.18 409.69
  A 0.19 0.19 0.0 0 0 500.96 409.85
  Z
  M 491.99 417.45
  L 480.03 417.85
  Q 474.90 417.53 469.89 416.15
  A 4.10 4.01 -36.2 0 0 468.91 416.01
  L 461.83 415.86
  A 7.00 6.90 50.6 0 1 460.60 415.73
  L 446.01 412.88
  A 0.45 0.44 65.8 0 0 445.70 413.70
  C 448.37 415.29 451.37 416.37 454.88 416.99
  Q 461.09 418.09 468.43 419.87
  Q 471.93 420.71 479.87 419.86
  Q 487.28 420.49 494.83 419.03
  Q 507.08 419.54 519.07 413.79
  Q 525.64 410.63 525.78 410.33
  A 0.34 0.33 8.4 0 0 525.43 409.86
  C 521.09 410.39 517.74 412.59 513.62 413.36
  Q 506.87 414.62 499.73 416.54
  A 1.12 0.34 -28.2 0 1 499.58 416.57
  L 491.99 417.45
  Z
  M 489.7743 412.1796
  A 1.93 0.90 -13.8 0 0 487.6853 411.7660
  A 1.93 0.90 -13.8 0 0 486.0257 413.1004
  A 1.93 0.90 -13.8 0 0 488.1147 413.5140
  A 1.93 0.90 -13.8 0 0 489.7743 412.1796
  Z
  M 471.56 423.12
  L 447.90 422.13
  A 0.12 0.12 0.0 0 0 447.78 422.24
  L 447.78 422.27
  A 10.58 2.37 2.4 0 0 458.25 425.08
  L 461.01 425.20
  A 10.58 2.37 2.4 0 0 471.68 423.27
  L 471.68 423.24
  A 0.12 0.12 0.0 0 0 471.56 423.12
  Z
  M 494.34 436.89
  Q 478.56 431.41 462.57 436.50
  C 457.01 436.00 450.85 438.88 447.25 439.68
  A 4.87 4.63 -65.7 0 0 445.85 440.25
  L 441.78 442.74
  A 1.90 1.90 0.0 0 0 440.90 444.70
  L 440.92 444.79
  A 1.42 1.42 0.0 0 0 442.76 445.78
  L 463.18 438.76
  Q 475.77 436.92 486.93 438.31
  Q 489.91 439.26 492.51 439.07
  A 3.18 2.91 -36.2 0 1 493.61 439.19
  Q 499.55 441.00 511.58 444.83
  Q 521.59 448.03 529.68 449.53
  Q 540.43 451.52 549.05 445.06
  C 551.39 443.31 552.95 440.83 553.04 437.99
  Q 553.26 430.23 547.22 424.45
  A 1.33 1.19 -11.9 0 0 546.72 424.16
  L 545.08 423.66
  A 0.96 0.95 6.0 0 0 543.85 424.65
  Q 543.96 425.91 544.46 426.99
  A 2.38 2.33 -81.3 0 0 545.02 427.77
  Q 548.35 430.82 549.97 436.09
  A 2.84 2.80 -54.9 0 1 550.10 436.87
  C 550.37 443.44 543.77 445.85 538.20 446.77
  Q 535.30 447.25 531.80 446.58
  Q 526.29 445.53 525.49 445.29
  Q 522.75 444.45 501.43 437.39
  A 1.68 1.39 50.4 0 0 501.01 437.31
  L 494.34 436.89
  Z
  M 490.0284 426.5779
  A 2.48 0.87 -36.7 0 0 487.5201 427.3625
  A 2.48 0.87 -36.7 0 0 486.0516 429.5421
  A 2.48 0.87 -36.7 0 0 488.5599 428.7575
  A 2.48 0.87 -36.7 0 0 490.0284 426.5779
  Z
  M 498.7153 426.5113
  A 2.69 1.01 -57.5 0 0 496.4182 428.2373
  A 2.69 1.01 -57.5 0 0 495.8247 431.0487
  A 2.69 1.01 -57.5 0 0 498.1218 429.3227
  A 2.69 1.01 -57.5 0 0 498.7153 426.5113
  Z
  M 507.27 427.78
  L 505.74 433.45
  A 0.13 0.13 0.0 0 0 505.83 433.61
  L 505.86 433.62
  A 2.68 1.72 -74.9 0 0 508.22 431.48
  L 508.42 430.73
  A 2.68 1.72 -74.9 0 0 507.46 427.69
  L 507.43 427.68
  A 0.13 0.13 0.0 0 0 507.27 427.78
  Z
  M 514.4276 427.8472
  A 3.45 0.63 -97.2 0 0 514.2350 431.3490
  A 3.45 0.63 -97.2 0 0 515.2924 434.6928
  A 3.45 0.63 -97.2 0 0 515.4850 431.1910
  A 3.45 0.63 -97.2 0 0 514.4276 427.8472
  Z
  M 532.47 443.57
  A 0.40 0.39 25.8 0 0 532.69 444.19
  C 538.59 445.71 545.64 444.14 547.99 438.05
  A 1.98 1.97 47.6 0 0 548.04 436.81
  Q 546.86 432.69 543.40 429.76
  A 1.41 1.40 48.3 0 0 541.71 429.66
  Q 538.59 431.78 538.69 435.07
  A 0.98 0.95 63.9 0 1 538.49 435.69
  L 532.47 443.57
  Z"
/>
<path fill="#000000" d="
  M 256.22 170.68
  L 255.94 170.68
  A 2.74 2.74 0.0 0 1 253.20 168.26
  L 252.45 161.87
  A 7.97 7.96 30.9 0 0 251.93 159.80
  Q 248.64 151.40 243.19 145.82
  Q 241.76 144.37 236.67 141.07
  C 234.38 139.58 231.36 138.65 229.74 137.22
  A 4.28 4.19 5.1 0 1 229.03 136.39
  C 227.75 134.47 228.94 127.94 229.56 125.61
  A 2.01 2.00 12.0 0 1 231.83 124.14
  C 240.14 125.52 246.00 126.30 254.25 125.10
  C 257.10 124.69 258.21 129.11 257.96 131.21
  Q 257.77 132.77 257.81 134.31
  Q 258.25 153.56 258.66 168.14
  A 2.48 2.48 0.0 0 1 256.22 170.68
  Z"
/>
<path fill="#000000" d="
  M 196.09 126.39
  C 196.85 128.63 198.51 136.69 195.12 138.11
  C 189.67 140.39 186.71 142.84 182.30 147.39
  C 172.22 157.79 169.04 172.09 172.54 185.98
  C 174.58 194.06 180.02 200.83 186.95 206.32
  Q 191.05 209.57 196.45 214.35
  Q 197.81 215.55 197.88 217.89
  Q 198.22 229.62 198.27 243.45
  Q 198.28 245.43 196.17 245.38
  A 1.54 1.51 -27.0 0 1 195.35 245.12
  C 191.23 242.36 186.65 238.18 183.25 236.11
  C 177.94 232.87 174.92 229.20 169.78 225.47
  Q 162.36 220.09 156.74 210.28
  Q 151.26 200.72 150.68 188.84
  Q 150.08 176.32 152.75 166.47
  Q 155.76 155.36 164.11 144.53
  C 170.77 135.88 180.03 129.91 190.26 126.02
  Q 191.68 125.48 195.38 125.83
  A 0.83 0.82 -6.5 0 1 196.09 126.39
  Z"
/>
<path fill="#000000" d="
  M 263.85 309.96
  A 0.99 0.99 0.0 0 1 265.55 309.77
  Q 268.74 314.05 272.43 316.99
  Q 275.35 319.32 276.51 321.05
  C 277.91 323.13 280.11 324.44 281.90 326.56
  Q 284.04 329.11 290.45 336.04
  C 294.18 340.08 289.69 351.99 287.80 357.74
  Q 286.63 361.31 284.64 364.84
  C 279.10 374.71 271.69 384.60 262.75 390.65
  C 260.01 392.50 257.20 395.09 254.73 396.45
  Q 238.17 405.58 219.98 407.14
  Q 214.50 407.60 201.03 407.65
  C 196.79 407.67 192.84 406.95 189.08 406.70
  A 10.01 9.91 -33.3 0 1 186.55 406.19
  Q 183.84 405.27 180.90 404.87
  C 177.33 404.38 174.59 402.89 170.94 401.96
  A 8.49 8.22 62.6 0 1 169.69 401.54
  Q 165.25 399.60 160.24 396.81
  Q 143.94 387.73 135.48 373.28
  Q 132.30 367.83 128.41 357.55
  Q 125.27 349.25 124.84 341.22
  C 124.34 331.69 124.38 324.57 127.01 316.31
  Q 128.47 311.73 129.45 308.27
  C 131.07 302.57 135.13 295.65 137.58 291.17
  A 11.97 11.61 80.0 0 1 138.86 289.28
  Q 145.10 281.78 146.36 280.38
  Q 147.73 278.86 150.87 278.59
  A 1.34 1.32 71.8 0 1 152.12 279.23
  C 153.16 280.94 152.92 283.27 151.46 284.93
  Q 145.51 291.76 141.29 303.05
  Q 138.35 310.94 137.58 316.04
  C 135.91 327.09 135.53 338.68 138.36 349.45
  Q 141.41 361.04 149.63 370.15
  C 157.64 379.02 166.25 384.22 176.77 389.03
  A 9.47 9.26 61.2 0 0 179.29 389.79
  C 184.29 390.57 189.03 392.30 194.20 392.45
  Q 201.66 392.66 208.55 392.32
  C 212.44 392.13 217.67 390.74 222.65 389.39
  Q 247.28 382.72 259.69 360.57
  Q 261.62 357.13 263.00 352.45
  Q 265.20 344.97 265.39 343.95
  Q 266.99 335.37 266.73 328.13
  C 266.54 322.89 264.40 316.80 263.74 312.76
  Q 263.43 310.90 263.85 309.96
  Z"
/>
<path fill="#444542" d="
  M 516.54 357.96
  C 514.63 357.11 512.61 357.64 511.06 355.86
  A 0.97 0.96 -22.7 0 0 510.25 355.53
  Q 508.16 355.69 505.98 354.86
  L 508.97 354.62
  A 2.03 2.02 10.9 0 0 510.63 353.50
  L 518.17 338.34
  A 2.17 1.23 -81.1 0 0 518.28 338.07
  Q 520.55 331.34 522.38 328.89
  C 525.57 324.63 530.37 329.96 529.61 333.62
  Q 529.20 335.56 526.74 338.04
  C 524.57 340.23 523.75 343.04 522.25 346.06
  Q 519.32 351.98 516.54 357.96
  Z
  M 524.6292 330.9608
  A 1.77 1.30 -98.8 0 0 523.6153 332.9089
  A 1.77 1.30 -98.8 0 0 525.1708 334.4592
  A 1.77 1.30 -98.8 0 0 526.1847 332.5111
  A 1.77 1.30 -98.8 0 0 524.6292 330.9608
  Z"
/>
<ellipse fill="#fcfcfc" cx="0.00" cy="0.00" transform="translate(524.90,332.71) rotate(-98.8)" rx="1.77" ry="1.30"/>
<path fill="#444542" d="
  M 525.71 363.02
  Q 523.46 362.95 521.69 361.58
  Q 519.65 360.00 519.00 359.68
  L 531.58 342.83
  A 8.82 8.65 -17.1 0 0 532.75 340.67
  Q 534.10 336.99 536.26 334.37
  A 1.66 1.66 0.0 0 1 538.28 333.95
  L 542.83 336.21
  A 1.70 1.69 16.5 0 1 543.76 337.91
  Q 543.51 340.23 542.20 342.62
  A 2.30 2.25 -2.2 0 1 541.43 343.43
  Q 538.93 344.97 538.34 345.55
  C 535.22 348.63 532.52 353.33 529.53 357.32
  Q 527.41 360.16 525.71 363.02
  Z
  M 539.77 338.73
  A 1.38 1.38 0.0 0 0 538.39 337.35
  A 1.38 1.38 0.0 0 0 537.01 338.73
  A 1.38 1.38 0.0 0 0 538.39 340.11
  A 1.38 1.38 0.0 0 0 539.77 338.73
  Z"
/>
<circle fill="#fcfcfc" cx="538.39" cy="338.73" r="1.38"/>
<path fill="#444542" d="
  M 497.39 396.35
  Q 499.15 395.34 497.21 392.29
  Q 490.25 381.36 478.70 372.77
  Q 476.94 371.46 474.68 371.23
  A 0.62 0.62 0.0 0 0 474.18 372.28
  L 485.37 383.38
  Q 483.95 383.69 483.11 384.48
  A 1.59 1.56 -13.9 0 0 482.65 385.23
  Q 482.34 386.39 481.75 386.98
  A 1.13 1.13 0.0 0 1 481.30 387.27
  L 475.14 389.50
  Q 474.89 388.29 471.60 388.52
  L 472.85 387.89
  A 0.57 0.57 0.0 0 0 473.13 387.17
  L 472.58 385.77
  A 1.20 1.19 -2.0 0 0 471.83 385.08
  L 466.31 383.40
  A 3.87 3.86 49.6 0 0 464.62 383.26
  C 460.41 383.82 454.96 384.09 450.78 382.69
  A 0.35 0.34 -43.3 0 1 450.80 382.03
  L 455.46 380.75
  A 0.58 0.58 0.0 0 0 455.45 379.63
  Q 454.13 379.30 453.19 377.61
  A 0.75 0.75 0.0 0 1 453.91 376.50
  L 457.20 376.77
  A 1.10 1.10 0.0 0 0 458.06 374.90
  L 456.79 373.63
  A 0.54 0.54 0.0 0 1 457.22 372.71
  L 461.61 373.07
  A 0.63 0.63 0.0 0 0 462.11 371.99
  L 461.01 370.89
  A 1.31 1.31 0.0 0 1 462.19 368.68
  L 465.56 369.33
  A 0.57 0.57 0.0 0 0 466.21 368.56
  L 465.26 366.17
  A 0.89 0.88 -17.1 0 1 465.89 364.99
  Q 469.30 364.19 471.70 366.52
  A 1.49 1.49 0.0 0 0 474.23 365.48
  Q 474.25 364.53 472.85 364.11
  Q 472.50 364.00 471.17 363.79
  A 1.23 1.22 39.3 0 1 470.93 361.43
  L 477.93 358.83
  A 3.70 3.61 32.5 0 1 479.03 358.60
  Q 483.79 358.33 487.77 357.63
  Q 491.22 357.02 492.15 360.08
  A 1.53 1.53 0.0 0 0 492.87 360.97
  Q 494.51 361.86 494.03 364.17
  A 0.38 0.37 -2.1 0 0 494.50 364.60
  L 495.04 364.45
  A 0.07 0.07 0.0 0 0 495.10 364.38
  Q 495.12 360.25 495.33 358.52
  A 1.36 1.13 -80.6 0 1 496.74 357.30
  Q 497.47 357.47 498.02 358.26
  Q 500.09 361.20 502.24 364.74
  Q 502.44 365.07 503.02 365.29
  A 1.06 1.06 0.0 0 0 504.44 364.50
  L 505.07 361.30
  A 1.55 1.55 0.0 0 1 507.75 360.57
  Q 509.73 362.80 510.77 366.25
  A 0.81 0.81 0.0 0 0 512.24 366.42
  L 513.14 364.86
  A 0.30 0.30 0.0 0 1 513.67 364.88
  L 516.24 370.50
  A 1.17 1.13 -53.3 0 1 516.32 371.13
  L 515.83 374.08
  A 0.36 0.35 -17.4 0 0 516.43 374.39
  Q 516.63 374.21 516.77 373.30
  A 1.28 1.23 -19.5 0 1 517.11 372.62
  Q 518.78 370.88 519.14 368.40
  A 0.70 0.65 15.7 0 1 520.09 367.91
  Q 520.35 368.02 520.38 368.40
  C 520.89 375.83 520.81 379.31 517.80 385.50
  A 1.14 1.11 -25.9 0 0 517.71 385.75
  L 516.59 390.77
  A 2.35 2.04 67.5 0 1 516.45 391.19
  L 512.23 400.10
  A 1.71 1.71 0.0 0 1 509.82 400.85
  L 509.54 400.69
  A 2.62 2.62 0.0 0 1 508.36 397.61
  Q 508.78 396.29 510.40 393.99
  Q 511.82 391.95 512.21 389.31
  A 3.73 3.53 -29.4 0 1 512.53 388.27
  Q 514.59 383.94 513.69 377.83
  A 0.48 0.47 -45.5 0 0 512.75 377.84
  Q 512.47 379.86 511.13 381.56
  A 2.01 1.99 66.4 0 0 510.70 382.68
  Q 510.28 389.04 508.87 393.53
  Q 508.25 395.47 507.55 396.79
  A 1.01 1.01 0.0 0 1 505.68 396.58
  L 505.04 394.25
  A 0.64 0.63 84.6 0 0 504.49 393.79
  Q 502.24 393.56 499.88 391.23
  A 0.71 0.71 0.0 0 0 498.83 391.29
  L 498.81 391.31
  A 0.95 0.95 0.0 0 0 498.80 392.48
  Q 504.16 399.50 507.67 408.07
  Q 508.42 409.90 508.41 411.26
  A 0.44 0.44 0.0 0 1 507.62 411.53
  C 504.74 407.97 502.82 404.53 499.95 400.73
  Q 498.33 398.59 497.39 396.35
  Z
  M 487.2263 368.3476
  A 2.71 1.21 -15.9 0 0 484.2885 367.9263
  A 2.71 1.21 -15.9 0 0 482.0137 369.8324
  A 2.71 1.21 -15.9 0 0 484.9515 370.2537
  A 2.71 1.21 -15.9 0 0 487.2263 368.3476
  Z
  M 497.19 387.77
  L 499.77 387.77
  A 0.11 0.11 0.0 0 0 499.88 387.66
  L 499.88 384.62
  A 13.71 1.40 89.9 0 0 498.46 370.91
  A 13.71 1.40 89.9 0 0 497.08 384.62
  L 497.08 387.66
  A 0.11 0.11 0.0 0 0 497.19 387.77
  Z
  M 490.8574 373.8270
  A 2.30 0.66 -13.4 0 0 488.4670 373.7180
  A 2.30 0.66 -13.4 0 0 486.3826 374.8930
  A 2.30 0.66 -13.4 0 0 488.7730 375.0020
  A 2.30 0.66 -13.4 0 0 490.8574 373.8270
  Z
  M 500.81 380.93
  A 1.08 1.07 -54.5 0 0 501.08 382.57
  L 503.29 383.84
  A 1.25 1.25 0.0 0 0 505.10 383.16
  Q 505.57 381.77 505.27 380.74
  A 0.85 0.84 86.2 0 0 504.58 380.13
  Q 501.88 379.70 500.81 380.93
  Z
  M 502.14 390.33
  Q 503.24 389.42 504.68 388.94
  A 1.17 1.17 0.0 0 0 504.54 386.68
  L 501.09 386.01
  A 0.58 0.57 1.9 0 0 500.41 386.64
  L 500.77 389.78
  A 0.84 0.84 0.0 0 0 502.14 390.33
  Z"
/>
<ellipse fill="#fcfcfc" cx="0.00" cy="0.00" transform="translate(484.62,369.09) rotate(-15.9)" rx="2.71" ry="1.21"/>
<path fill="#fcfcfc" d="
  M 497.19 387.77
  A 0.11 0.11 0.0 0 1 497.08 387.66
  L 497.08 384.62
  A 13.71 1.40 89.9 0 1 498.46 370.91
  A 13.71 1.40 89.9 0 1 499.88 384.62
  L 499.88 387.66
  A 0.11 0.11 0.0 0 1 499.77 387.77
  L 497.19 387.77
  Z"
/>
<path fill="#fcfcfc" d="
  M 497.39 396.35
  L 485.37 383.38
  L 474.18 372.28
  A 0.62 0.62 0.0 0 1 474.68 371.23
  Q 476.94 371.46 478.70 372.77
  Q 490.25 381.36 497.21 392.29
  Q 499.15 395.34 497.39 396.35
  Z"
/>
<ellipse fill="#fcfcfc" cx="0.00" cy="0.00" transform="translate(488.62,374.36) rotate(-13.4)" rx="2.30" ry="0.66"/>
<path fill="#000000" d="
  M 500.81 380.93
  Q 501.88 379.70 504.58 380.13
  A 0.85 0.84 86.2 0 1 505.27 380.74
  Q 505.57 381.77 505.10 383.16
  A 1.25 1.25 0.0 0 1 503.29 383.84
  L 501.08 382.57
  A 1.08 1.07 -54.5 0 1 500.81 380.93
  Z"
/>
<path fill="#444542" d="
  M 468.44 389.77
  L 467.04 391.01
  Q 467.01 390.90 466.98 390.77
  A 0.25 0.25 0.0 0 0 466.75 390.57
  L 448.00 389.04
  A 0.37 0.37 0.0 0 1 447.84 388.35
  L 448.14 388.16
  A 3.42 3.30 -64.4 0 1 449.00 387.84
  L 456.91 385.97
  Q 456.96 385.96 457.01 385.95
  Q 459.66 385.70 465.27 386.20
  Q 468.54 386.48 468.44 389.77
  Z"
/>
<path fill="#000000" d="
  M 502.14 390.33
  A 0.84 0.84 0.0 0 1 500.77 389.78
  L 500.41 386.64
  A 0.58 0.57 1.9 0 1 501.09 386.01
  L 504.54 386.68
  A 1.17 1.17 0.0 0 1 504.68 388.94
  Q 503.24 389.42 502.14 390.33
  Z"
/>
<path fill="#444542" d="
  M 527.61 387.26
  A 0.11 0.11 0.0 0 1 527.77 387.24
  L 527.79 387.25
  A 4.52 1.70 -52.8 0 1 526.41 391.88
  L 526.19 392.17
  A 4.52 1.70 -52.8 0 1 522.11 394.74
  L 522.08 394.72
  A 0.11 0.11 0.0 0 1 522.06 394.57
  L 527.61 387.26
  Z"
/>
<path fill="#fcfcfc" d="
  M 471.60 388.52
  Q 474.89 388.29 475.14 389.50
  L 460.51 399.00
  Q 459.89 398.88 459.79 398.75
  Q 459.29 398.06 459.84 397.42
  Q 461.28 395.69 463.06 394.08
  L 467.04 391.01
  L 468.44 389.77
  L 471.60 388.52
  Z"
/>
<path fill="#fcfcfc" d="
  M 483.16 392.47
  A 0.57 0.57 0.0 0 1 482.97 393.25
  L 474.80 398.32
  A 11.59 1.45 -31.8 0 1 464.18 403.20
  L 464.11 403.08
  A 11.59 1.45 -31.8 0 1 473.19 395.74
  L 481.37 390.67
  A 0.57 0.57 0.0 0 1 482.15 390.85
  L 483.16 392.47
  Z"
/>
<path fill="#444542" d="
  M 463.06 394.08
  Q 461.28 395.69 459.84 397.42
  Q 459.29 398.06 459.79 398.75
  Q 459.89 398.88 460.51 399.00
  Q 458.92 400.40 456.76 401.23
  A 0.56 0.56 0.0 0 0 456.50 402.06
  Q 458.01 404.34 461.31 405.06
  A 0.34 0.34 0.0 0 1 461.30 405.72
  Q 455.36 406.82 451.41 402.99
  A 6.90 6.86 -6.5 0 0 450.37 402.17
  Q 447.25 400.22 445.07 397.19
  A 0.61 0.60 87.0 0 1 445.86 396.31
  L 453.97 400.99
  A 1.45 1.45 0.0 0 0 456.14 399.84
  Q 456.26 398.26 457.92 396.71
  A 0.49 0.49 0.0 0 0 457.62 395.87
  L 449.60 395.21
  A 0.69 0.69 0.0 0 1 449.32 393.92
  Q 451.68 392.63 455.57 392.91
  A 1.17 0.80 29.0 0 0 455.78 392.89
  L 460.46 392.06
  A 0.55 0.55 0.0 0 1 461.11 392.57
  Q 461.19 394.14 463.06 394.08
  Z"
/>
<path fill="#444542" d="
  M 518.29 405.95
  A 0.68 0.68 0.0 0 1 518.43 404.99
  L 518.63 404.85
  A 17.73 1.70 -36.6 0 1 533.87 395.64
  L 534.01 395.82
  A 17.73 1.70 -36.6 0 1 520.79 407.75
  L 520.58 407.90
  A 0.68 0.68 0.0 0 1 519.63 407.76
  L 518.29 405.95
  Z"
/>
<path fill="#fcfcfc" d="
  M 469.93 406.69
  Q 469.94 406.50 470.39 406.14
  C 474.97 402.47 486.14 393.00 489.47 396.60
  A 0.58 0.58 0.0 0 1 489.33 397.50
  Q 478.82 403.52 470.86 407.29
  A 0.65 0.64 -11.7 0 1 469.93 406.69
  Z"
/>
<path fill="#fcfcfc" d="
  M 496.91 404.73
  Q 495.29 406.81 494.01 404.48
  L 494.47 401.81
  A 0.87 0.87 0.0 0 1 496.06 401.49
  Q 496.99 402.95 496.91 404.73
  Z"
/>
<path fill="#444542" d="
  M 477.32 410.19
  L 477.30 410.15
  A 0.92 0.92 0.0 0 1 477.61 408.85
  Q 482.49 406.00 485.12 404.19
  C 486.99 402.90 490.16 401.51 492.15 401.19
  A 0.85 0.85 0.0 0 1 493.05 402.41
  Q 492.20 404.12 490.89 404.61
  Q 490.74 404.66 478.72 410.57
  A 1.11 1.10 -29.6 0 1 477.32 410.19
  Z"
/>
<path fill="#444542" d="
  M 494.01 404.48
  Q 495.29 406.81 496.91 404.73
  C 496.65 407.30 495.71 412.69 492.83 413.63
  A 0.50 0.50 0.0 0 1 492.21 412.96
  Q 493.44 409.93 493.34 405.87
  A 1.50 1.48 -26.7 0 1 493.66 404.92
  L 494.01 404.48
  Z"
/>
<path fill="#444542" d="
  M 500.96 409.85
  A 0.19 0.19 0.0 0 1 501.18 409.69
  L 501.30 409.71
  A 2.93 2.27 9.7 0 1 503.80 412.45
  L 503.75 412.76
  A 2.93 2.27 9.7 0 1 500.48 414.50
  L 500.36 414.48
  A 0.19 0.19 0.0 0 1 500.21 414.27
  L 500.96 409.85
  Z"
/>
<path fill="#444542" d="
  M 494.83 419.03
  Q 494.49 417.73 491.99 417.45
  L 499.58 416.57
  A 1.12 0.34 -28.2 0 0 499.73 416.54
  Q 506.87 414.62 513.62 413.36
  C 517.74 412.59 521.09 410.39 525.43 409.86
  A 0.34 0.33 8.4 0 1 525.78 410.33
  Q 525.64 410.63 519.07 413.79
  Q 507.08 419.54 494.83 419.03
  Z"
/>
<ellipse fill="#444542" cx="0.00" cy="0.00" transform="translate(487.90,412.64) rotate(-13.8)" rx="1.93" ry="0.90"/>
<path fill="#444542" d="
  M 480.03 417.85
  L 477.12 418.26
  A 0.21 0.20 52.5 0 0 477.07 418.65
  L 479.87 419.86
  Q 471.93 420.71 468.43 419.87
  Q 461.09 418.09 454.88 416.99
  C 451.37 416.37 448.37 415.29 445.70 413.70
  A 0.45 0.44 65.8 0 1 446.01 412.88
  L 460.60 415.73
  A 7.00 6.90 50.6 0 0 461.83 415.86
  L 468.91 416.01
  A 4.10 4.01 -36.2 0 1 469.89 416.15
  Q 474.90 417.53 480.03 417.85
  Z"
/>
<path fill="#fcfcfc" d="
  M 491.99 417.45
  Q 494.49 417.73 494.83 419.03
  Q 487.28 420.49 479.87 419.86
  L 477.07 418.65
  A 0.21 0.20 52.5 0 1 477.12 418.26
  L 480.03 417.85
  L 491.99 417.45
  Z"
/>
<path fill="#444542" d="
  M 471.56 423.12
  A 0.12 0.12 0.0 0 1 471.68 423.24
  L 471.68 423.27
  A 10.58 2.37 2.4 0 1 461.01 425.20
  L 458.25 425.08
  A 10.58 2.37 2.4 0 1 447.78 422.27
  L 447.78 422.24
  A 0.12 0.12 0.0 0 1 447.90 422.13
  L 471.56 423.12
  Z"
/>
<path fill="#444542" d="
  M 486.93 438.31
  Q 489.17 438.28 493.24 438.86
  Q 496.42 439.30 494.34 436.89
  L 501.01 437.31
  A 1.68 1.39 50.4 0 1 501.43 437.39
  Q 522.75 444.45 525.49 445.29
  Q 526.29 445.53 531.80 446.58
  Q 535.30 447.25 538.20 446.77
  C 543.77 445.85 550.37 443.44 550.10 436.87
  A 2.84 2.80 -54.9 0 0 549.97 436.09
  Q 548.35 430.82 545.02 427.77
  A 2.38 2.33 -81.3 0 1 544.46 426.99
  Q 543.96 425.91 543.85 424.65
  A 0.96 0.95 6.0 0 1 545.08 423.66
  L 546.72 424.16
  A 1.33 1.19 -11.9 0 1 547.22 424.45
  Q 553.26 430.23 553.04 437.99
  C 552.95 440.83 551.39 443.31 549.05 445.06
  Q 540.43 451.52 529.68 449.53
  Q 521.59 448.03 511.58 444.83
  Q 499.55 441.00 493.61 439.19
  A 3.18 2.91 -36.2 0 0 492.51 439.07
  Q 489.91 439.26 486.93 438.31
  Z"
/>
<ellipse fill="#444542" cx="0.00" cy="0.00" transform="translate(488.04,428.06) rotate(-36.7)" rx="2.48" ry="0.87"/>
<ellipse fill="#444542" cx="0.00" cy="0.00" transform="translate(497.27,428.78) rotate(-57.5)" rx="2.69" ry="1.01"/>
<path fill="#444542" d="
  M 507.27 427.78
  A 0.13 0.13 0.0 0 1 507.43 427.68
  L 507.46 427.69
  A 2.68 1.72 -74.9 0 1 508.42 430.73
  L 508.22 431.48
  A 2.68 1.72 -74.9 0 1 505.86 433.62
  L 505.83 433.61
  A 0.13 0.13 0.0 0 1 505.74 433.45
  L 507.27 427.78
  Z"
/>
<ellipse fill="#444542" cx="0.00" cy="0.00" transform="translate(514.86,431.27) rotate(-97.2)" rx="3.45" ry="0.63"/>
<path fill="#fcfcfc" d="
  M 532.47 443.57
  L 538.49 435.69
  A 0.98 0.95 63.9 0 0 538.69 435.07
  Q 538.59 431.78 541.71 429.66
  A 1.41 1.40 48.3 0 1 543.40 429.76
  Q 546.86 432.69 548.04 436.81
  A 1.98 1.97 47.6 0 1 547.99 438.05
  C 545.64 444.14 538.59 445.71 532.69 444.19
  A 0.40 0.39 25.8 0 1 532.47 443.57
  Z"
/>
<path fill="#fcfcfc" d="
  M 494.34 436.89
  Q 496.42 439.30 493.24 438.86
  Q 489.17 438.28 486.93 438.31
  Q 475.77 436.92 463.18 438.76
  Q 462.42 438.92 461.84 438.78
  Q 460.97 438.57 461.07 437.87
  Q 461.16 437.13 462.57 436.50
  Q 478.56 431.41 494.34 436.89
  Z"
/>
<path fill="#444542" d="
  M 462.57 436.50
  Q 461.16 437.13 461.07 437.87
  Q 460.97 438.57 461.84 438.78
  Q 462.42 438.92 463.18 438.76
  L 442.76 445.78
  A 1.42 1.42 0.0 0 1 440.92 444.79
  L 440.90 444.70
  A 1.90 1.90 0.0 0 1 441.78 442.74
  L 445.85 440.25
  A 4.87 4.63 -65.7 0 1 447.25 439.68
  C 450.85 438.88 457.01 436.00 462.57 436.50
  Z"
/>
<path fill="#444542" d="
  M 463.20 462.47
  Q 459.92 471.07 454.53 478.51
  Q 453.67 479.70 452.84 479.91
  A 2.48 2.38 77.9 0 1 449.89 477.91
  Q 449.56 476.02 450.22 474.47
  C 452.76 468.53 453.70 465.46 455.81 462.15
  Q 456.91 460.43 457.39 458.62
  A 0.71 0.71 0.0 0 0 456.20 457.94
  Q 451.36 462.86 449.11 466.52
  A 4.54 4.46 84.3 0 1 448.37 467.44
  L 443.90 471.65
  A 2.04 2.03 -41.2 0 1 440.92 471.46
  L 440.59 471.04
  A 3.03 3.02 -41.8 0 1 440.82 467.05
  L 442.68 465.17
  A 6.28 6.27 -11.3 0 0 443.91 463.33
  Q 444.78 461.39 451.21 452.71
  Q 451.62 452.16 452.37 449.74
  Q 452.63 450.09 453.01 450.12
  Q 453.38 450.15 453.65 449.83
  Q 453.99 449.43 454.51 449.37
  Q 454.88 449.32 455.42 449.70
  Q 456.96 450.76 462.06 454.15
  Q 463.67 455.22 464.16 456.79
  A 0.83 0.83 0.0 0 1 464.11 457.41
  L 461.64 462.37
  A 0.47 0.47 0.0 0 0 462.30 462.98
  L 463.20 462.47
  Z"
/>
</svg>
